<svg xmlns="http://www.w3.org/2000/svg" width="24in" height="36in" viewBox="0 0 2400 3600">
<title>08_EN_Game_IQ_Zone - stencil-ready one-color SVG</title>
<g id="BLACK_CUT_OR_PAINT_AREA">
<path d="M 928.4 536.6 Q 906.5 548.3 Q 883.1 554.2 Q 859.7 560.1 Q 834.8 560.1 Q 778.4 560.1 Q 745.4 525.1 Q 712.6 490.0 Q 712.6 430.1 Q 712.6 369.5 Q 746.0 334.7 Q 779.5 299.9 Q 838.0 299.9 Q 860.5 299.9 Q 881.2 304.6 Q 901.8 309.3 Q 920.1 318.5 L 920.1 370.4 Q 901.2 358.5 Q 882.5 352.7 Q 863.9 346.8 Q 845.0 346.8 Q 810.3 346.8 Q 791.5 368.4 Q 772.6 389.9 Q 772.6 430.1 Q 772.6 469.9 Q 790.8 491.6 Q 808.9 513.2 Q 842.4 513.2 Q 851.4 513.2 Q 859.2 512.0 Q 867.1 510.7 Q 873.1 508.0 L 873.1 459.3 L 837.7 459.3 L 837.7 415.9 L 928.4 415.9 L 928.4 536.6 Z M 1116.5 509.5 L 1025.4 509.5 L 1011.0 555.2 L 952.5 555.2 L 1036.2 304.4 L 1105.6 304.4 L 1189.2 555.2 L 1130.6 555.2 L 1116.5 509.5 Z M 1039.9 463.0 L 1101.7 463.0 L 1071.0 363.2 L 1039.9 463.0 Z M 1218.9 304.4 L 1293.0 304.4 L 1344.5 438.6 L 1396.2 304.4 L 1470.1 304.4 L 1470.1 555.2 L 1415.0 555.2 L 1415.0 371.8 L 1363.1 507.0 L 1326.1 507.0 L 1274.2 371.8 L 1274.2 555.2 L 1218.9 555.2 L 1218.9 304.4 Z M 1527.0 304.4 L 1684.1 304.4 L 1684.1 353.3 L 1585.3 353.3 L 1585.3 400.0 L 1678.2 400.0 L 1678.2 448.9 L 1585.3 448.9 L 1585.3 506.4 L 1687.4 506.4 L 1687.4 555.2 L 1527.0 555.2 L 1527.0 304.4 Z" fill="none"/>
<rect x="1063.5" y="411.8" width="273.0" height="36.4" fill="none"/>
<path d="M 991.1 669.9 L 1064.0 669.9 L 1064.0 983.4 L 991.1 983.4 L 991.1 669.9 Z M 1271.6 989.0 L 1265.9 989.0 Q 1196.3 989.0 Q 1157.5 946.2 Q 1118.8 903.4 Q 1118.8 827.0 Q 1118.8 750.7 Q 1157.4 707.5 Q 1196.1 664.3 Q 1263.8 664.3 Q 1332.5 664.3 Q 1370.7 707.1 Q 1408.9 749.9 Q 1408.9 827.0 Q 1408.9 879.9 Q 1388.6 918.1 Q 1368.4 956.3 Q 1330.2 975.6 L 1387.1 1046.2 L 1317.8 1046.2 L 1271.6 989.0 Z M 1263.8 722.8 Q 1230.7 722.8 Q 1212.2 750.1 Q 1193.9 777.4 Q 1193.9 827.0 Q 1193.9 877.4 Q 1211.8 904.2 Q 1229.9 930.9 Q 1263.8 930.9 Q 1297.2 930.9 Q 1315.6 903.6 Q 1334.0 876.3 Q 1334.0 827.0 Q 1334.0 777.4 Q 1315.6 750.1 Q 1297.2 722.8 Q 1263.8 722.8 Z" fill="none"/>
<rect x="1141.5" y="828.5" width="117.0" height="53.5" fill="none"/>
<path d="M 742.9 1276.5 L 932.5 1276.5 L 932.5 1315.6 L 811.4 1478.4 L 936.0 1478.4 L 936.0 1527.3 L 739.3 1527.3 L 739.3 1488.2 L 860.5 1325.4 L 742.9 1325.4 L 742.9 1276.5 Z M 1081.3 1318.9 Q 1054.8 1318.9 Q 1040.1 1340.7 Q 1025.4 1362.5 Q 1025.4 1402.2 Q 1025.4 1441.6 Q 1040.1 1463.5 Q 1054.8 1485.3 Q 1081.3 1485.3 Q 1108.0 1485.3 Q 1122.7 1463.5 Q 1137.4 1441.6 Q 1137.4 1402.2 Q 1137.4 1362.5 Q 1122.7 1340.7 Q 1108.0 1318.9 Q 1081.3 1318.9 Z M 1081.3 1272.0 Q 1135.7 1272.0 Q 1166.5 1306.6 Q 1197.4 1341.2 Q 1197.4 1402.2 Q 1197.4 1463.0 Q 1166.5 1497.6 Q 1135.7 1532.2 Q 1081.3 1532.2 Q 1027.1 1532.2 Q 996.2 1497.6 Q 965.3 1463.0 Q 965.3 1402.2 Q 965.3 1341.2 Q 996.2 1306.6 Q 1027.1 1272.0 Q 1081.3 1272.0 Z M 1241.2 1276.5 L 1306.3 1276.5 L 1388.4 1448.5 L 1388.4 1276.5 L 1443.5 1276.5 L 1443.5 1527.3 L 1378.4 1527.3 L 1296.5 1355.3 L 1296.5 1527.3 L 1241.2 1527.3 L 1241.2 1276.5 Z M 1500.2 1276.5 L 1657.3 1276.5 L 1657.3 1325.4 L 1558.6 1325.4 L 1558.6 1372.1 L 1651.4 1372.1 L 1651.4 1421.0 L 1558.6 1421.0 L 1558.6 1478.4 L 1660.7 1478.4 L 1660.7 1527.3 L 1500.2 1527.3 L 1500.2 1276.5 Z" fill="none"/>
<rect x="1071.0" y="1383.9" width="258.0" height="36.4" fill="none"/>
<circle cx="282.5" cy="2367.30125" r="175.0" fill="none"/>
<line x1="195.0" y1="2479.80125" x2="70.0" y2="2667.30125" stroke="#FFFFFF" stroke-width="100.0" stroke-linecap="round"/>
<rect x="70.0" y="2667.30125" width="360*s" height="280*s" rx="45*s" fill="none"/>
<line x1="613.75" y1="1961.05125" x2="726.25" y2="2073.55125" stroke="#FFFFFF" stroke-width="50.0" stroke-linecap="round"/>
<line x1="726.25" y1="1961.05125" x2="613.75" y2="2073.55125" stroke="#FFFFFF" stroke-width="50.0" stroke-linecap="round"/>
<circle cx="945.0" cy="1967.30125" r="70*s" fill="none" stroke="#FFFFFF" stroke-width="38*s"/>
<line x1="1113.75" y1="2123.55125" x2="1226.25" y2="2236.05125" stroke="#FFFFFF" stroke-width="50.0" stroke-linecap="round"/>
<line x1="1226.25" y1="2123.55125" x2="1113.75" y2="2236.05125" stroke="#FFFFFF" stroke-width="50.0" stroke-linecap="round"/>
<circle cx="870.0" cy="2367.30125" r="70*s" fill="none" stroke="#FFFFFF" stroke-width="38*s"/>
<circle cx="1270.0" cy="2467.30125" r="70*s" fill="none" stroke="#FFFFFF" stroke-width="38*s"/>
<line x1="1438.75" y1="2061.05125" x2="1551.25" y2="2173.55125" stroke="#FFFFFF" stroke-width="50.0" stroke-linecap="round"/>
<line x1="1551.25" y1="2061.05125" x2="1438.75" y2="2173.55125" stroke="#FFFFFF" stroke-width="50.0" stroke-linecap="round"/>
<line x1="1032.5" y1="2417.30125" x2="1370.0" y2="2179.80125" stroke="#FFFFFF" stroke-width="56.25" stroke-linecap="round"/>
<line x1="1370.0" y1="2179.80125" x2="1482.5" y2="1942.30125" stroke="#FFFFFF" stroke-width="56.25" stroke-linecap="round"/>
<line x1="1482.5" y1="1942.30125" x2="1513.75" y2="2067.30125" stroke="#FFFFFF" stroke-width="56.25" stroke-linecap="round"/>
<line x1="1482.5" y1="1942.30125" x2="1382.5" y2="2017.30125" stroke="#FFFFFF" stroke-width="56.25" stroke-linecap="round"/>
<rect x="935.0" y="2297.3" width="530.0" height="70.0" fill="none"/>
<rect x="1060.0" y="2627.3" width="330.0" height="70.0" fill="none"/>
</g>
<g id="STENCIL_BRIDGES_BACKGROUND_WHITE"/>
</svg>