<svg xmlns="http://www.w3.org/2000/svg" width="24in" height="36in" viewBox="0 0 2400 3600">
<title>10_EN_Speed_Zone - stencil-ready one-color SVG</title>
<g id="BLACK_CUT_OR_PAINT_AREA">
<path d="M 737.6 287.7 L 737.6 351.9 Q 715.2 340.7 Q 693.8 335.1 Q 672.4 329.3 Q 653.3 329.3 Q 628.1 329.3 Q 616.0 337.1 Q 603.9 344.8 Q 603.9 361.0 Q 603.9 373.2 Q 612.1 380.0 Q 620.2 386.8 Q 641.7 391.7 L 671.5 398.4 Q 717.3 408.6 Q 736.3 429.3 Q 755.5 450.0 Q 755.5 488.2 Q 755.5 538.3 Q 728.7 562.8 Q 702.0 587.3 Q 647.0 587.3 Q 621.0 587.3 Q 594.8 581.8 Q 568.8 576.3 Q 542.6 565.6 L 542.6 499.6 Q 568.8 515.0 Q 593.1 522.9 Q 617.5 530.7 Q 640.3 530.7 Q 663.2 530.7 Q 675.5 522.1 Q 687.8 513.6 Q 687.8 497.7 Q 687.8 483.5 Q 679.5 475.8 Q 671.1 468.1 Q 646.2 461.9 L 619.0 455.3 Q 578.1 445.5 Q 559.2 424.2 Q 540.2 402.9 Q 540.2 366.7 Q 540.2 321.4 Q 566.6 297.0 Q 593.0 272.7 Q 642.1 272.7 Q 664.6 272.7 Q 688.4 276.4 Q 712.2 280.2 Q 737.6 287.7 Z M 817.2 278.1 L 934.0 278.1 Q 986.2 278.1 Q 1014.0 303.9 Q 1041.8 329.5 Q 1041.8 377.1 Q 1041.8 424.8 Q 1014.0 450.5 Q 986.2 476.2 Q 934.0 476.2 L 887.7 476.2 L 887.7 581.4 L 817.2 581.4 L 817.2 278.1 Z M 887.7 334.8 L 887.7 419.5 L 926.5 419.5 Q 947.0 419.5 Q 958.2 408.5 Q 969.4 397.4 Q 969.4 377.1 Q 969.4 356.8 Q 958.2 345.8 Q 947.0 334.8 Q 926.5 334.8 L 887.7 334.8 Z M 1091.4 278.1 L 1281.3 278.1 L 1281.3 337.3 L 1161.9 337.3 L 1161.9 393.7 L 1274.3 393.7 L 1274.3 452.8 L 1161.9 452.8 L 1161.9 522.3 L 1285.4 522.3 L 1285.4 581.4 L 1091.4 581.4 L 1091.4 278.1 Z M 1347.1 278.1 L 1537.1 278.1 L 1537.1 337.3 L 1417.7 337.3 L 1417.7 393.7 L 1530.0 393.7 L 1530.0 452.8 L 1417.7 452.8 L 1417.7 522.3 L 1541.2 522.3 L 1541.2 581.4 L 1347.1 581.4 L 1347.1 278.1 Z M 1673.4 337.3 L 1673.4 522.3 L 1698.6 522.3 Q 1741.7 522.3 Q 1764.4 498.5 Q 1787.2 474.8 Q 1787.2 429.4 Q 1787.2 384.4 Q 1764.5 360.9 Q 1741.9 337.3 Q 1698.6 337.3 L 1673.4 337.3 Z M 1602.9 278.1 L 1677.2 278.1 Q 1739.4 278.1 Q 1769.7 288.0 Q 1800.2 297.8 Q 1821.9 321.4 Q 1841.2 342.0 Q 1850.5 368.8 Q 1859.8 395.6 Q 1859.8 429.4 Q 1859.8 463.8 Q 1850.5 490.7 Q 1841.2 517.7 Q 1821.9 538.1 Q 1799.9 561.7 Q 1769.2 571.6 Q 1738.6 581.4 Q 1677.2 581.4 L 1602.9 581.4 L 1602.9 278.1 Z" fill="none"/>
<rect x="1015.2" y="408.0" width="369.5" height="44.1" fill="none"/>
<path d="M 647.2 757.8 L 876.5 757.8 L 876.5 805.1 L 730.1 1002.0 L 880.8 1002.0 L 880.8 1061.1 L 642.9 1061.1 L 642.9 1013.8 L 789.4 816.9 L 647.2 816.9 L 647.2 757.8 Z M 1056.5 809.0 Q 1024.4 809.0 Q 1006.6 835.4 Q 988.8 861.8 Q 988.8 909.8 Q 988.8 957.5 Q 1006.6 983.9 Q 1024.4 1010.3 Q 1056.5 1010.3 Q 1088.8 1010.3 Q 1106.5 983.9 Q 1124.4 957.5 Q 1124.4 909.8 Q 1124.4 861.8 Q 1106.5 835.4 Q 1088.8 809.0 Q 1056.5 809.0 Z M 1056.5 752.3 Q 1122.3 752.3 Q 1159.5 794.2 Q 1196.8 836.0 Q 1196.8 909.8 Q 1196.8 983.3 Q 1159.5 1025.1 Q 1122.3 1067.0 Q 1056.5 1067.0 Q 990.9 1067.0 Q 953.5 1025.1 Q 916.2 983.3 Q 916.2 909.8 Q 916.2 836.0 Q 953.5 794.2 Q 990.9 752.3 Q 1056.5 752.3 Z M 1249.9 757.8 L 1328.5 757.8 L 1427.8 965.8 L 1427.8 757.8 L 1494.5 757.8 L 1494.5 1061.1 L 1415.8 1061.1 L 1316.7 853.1 L 1316.7 1061.1 L 1249.9 1061.1 L 1249.9 757.8 Z M 1563.1 757.8 L 1753.0 757.8 L 1753.0 816.9 L 1633.6 816.9 L 1633.6 873.4 L 1745.9 873.4 L 1745.9 932.5 L 1633.6 932.5 L 1633.6 1002.0 L 1757.1 1002.0 L 1757.1 1061.1 L 1563.1 1061.1 L 1563.1 757.8 Z" fill="none"/>
<rect x="1044.0" y="887.6" width="312.0" height="44.1" fill="none"/>
<circle cx="993.0" cy="2062.5" r="92.0" fill="none"/>
<line x1="924.0" y1="2235.0" x2="1096.5" y2="2419.0" stroke="#FFFFFF" stroke-width="109.24999999999999" stroke-linecap="round"/>
<line x1="952.75" y1="2281.0" x2="763.0" y2="2453.5" stroke="#FFFFFF" stroke-width="80.5" stroke-linecap="round"/>
<line x1="1062.0" y1="2373.0" x2="1223.0" y2="2258.0" stroke="#FFFFFF" stroke-width="80.5" stroke-linecap="round"/>
<line x1="1016.0" y1="2499.5" x2="855.0" y2="2833.0" stroke="#FFFFFF" stroke-width="92.0" stroke-linecap="round"/>
<line x1="1056.25" y1="2505.25" x2="1269.0" y2="2695.0" stroke="#FFFFFF" stroke-width="92.0" stroke-linecap="round"/>
<line x1="579.0" y1="2361.5" x2="326.0" y2="2361.5" stroke="#FFFFFF" stroke-width="28.749999999999996" stroke-linecap="round"/>
<line x1="556.0" y1="2488.0" x2="280.0" y2="2488.0" stroke="#FFFFFF" stroke-width="28.749999999999996" stroke-linecap="round"/>
<line x1="533.0" y1="2614.5" x2="234.0" y2="2614.5" stroke="#FFFFFF" stroke-width="28.749999999999996" stroke-linecap="round"/>
<circle cx="1545.0" cy="2062.5" r="92.0" fill="none"/>
<line x1="1476.0" y1="2235.0" x2="1648.5" y2="2419.0" stroke="#FFFFFF" stroke-width="109.24999999999999" stroke-linecap="round"/>
<line x1="1504.75" y1="2281.0" x2="1315.0" y2="2453.5" stroke="#FFFFFF" stroke-width="80.5" stroke-linecap="round"/>
<line x1="1614.0" y1="2373.0" x2="1775.0" y2="2258.0" stroke="#FFFFFF" stroke-width="80.5" stroke-linecap="round"/>
<line x1="1568.0" y1="2499.5" x2="1407.0" y2="2833.0" stroke="#FFFFFF" stroke-width="92.0" stroke-linecap="round"/>
<line x1="1608.25" y1="2505.25" x2="1821.0" y2="2695.0" stroke="#FFFFFF" stroke-width="92.0" stroke-linecap="round"/>
<line x1="1131.0" y1="2361.5" x2="878.0" y2="2361.5" stroke="#FFFFFF" stroke-width="28.749999999999996" stroke-linecap="round"/>
<line x1="1108.0" y1="2488.0" x2="832.0" y2="2488.0" stroke="#FFFFFF" stroke-width="28.749999999999996" stroke-linecap="round"/>
<line x1="1085.0" y1="2614.5" x2="786.0" y2="2614.5" stroke="#FFFFFF" stroke-width="28.749999999999996" stroke-linecap="round"/>
<rect x="935.0" y="2260.0" width="530.0" height="70.0" fill="none"/>
<rect x="1060.0" y="2590.0" width="330.0" height="70.0" fill="none"/>
</g>
<g id="STENCIL_BRIDGES_BACKGROUND_WHITE"/>
</svg>