<svg xmlns="http://www.w3.org/2000/svg" width="24in" height="36in" viewBox="0 0 2400 3600">
<title>07_EN_Foot_Skills_Zone - stencil-ready one-color SVG</title>
<g id="BLACK_CUT_OR_PAINT_AREA">
<path d="M 740.7 304.4 L 897.7 304.4 L 897.7 353.3 L 799.0 353.3 L 799.0 400.0 L 891.9 400.0 L 891.9 448.9 L 799.0 448.9 L 799.0 555.2 L 740.7 555.2 L 740.7 304.4 Z M 1055.3 346.8 Q 1028.7 346.8 Q 1014.0 368.6 Q 999.3 390.4 Q 999.3 430.1 Q 999.3 469.5 Q 1014.0 491.4 Q 1028.7 513.2 Q 1055.3 513.2 Q 1082.0 513.2 Q 1096.7 491.4 Q 1111.4 469.5 Q 1111.4 430.1 Q 1111.4 390.4 Q 1096.7 368.6 Q 1082.0 346.8 Q 1055.3 346.8 Z M 1055.3 299.9 Q 1109.7 299.9 Q 1140.5 334.5 Q 1171.3 369.1 Q 1171.3 430.1 Q 1171.3 490.9 Q 1140.5 525.5 Q 1109.7 560.1 Q 1055.3 560.1 Q 1001.1 560.1 Q 970.2 525.5 Q 939.3 490.9 Q 939.3 430.1 Q 939.3 369.1 Q 970.2 334.5 Q 1001.1 299.9 Q 1055.3 299.9 Z M 1318.3 346.8 Q 1291.8 346.8 Q 1277.1 368.6 Q 1262.4 390.4 Q 1262.4 430.1 Q 1262.4 469.5 Q 1277.1 491.4 Q 1291.8 513.2 Q 1318.3 513.2 Q 1345.1 513.2 Q 1359.7 491.4 Q 1374.5 469.5 Q 1374.5 430.1 Q 1374.5 390.4 Q 1359.7 368.6 Q 1345.1 346.8 Q 1318.3 346.8 Z M 1318.3 299.9 Q 1372.7 299.9 Q 1403.5 334.5 Q 1434.4 369.1 Q 1434.4 430.1 Q 1434.4 490.9 Q 1403.5 525.5 Q 1372.7 560.1 Q 1318.3 560.1 Q 1264.1 560.1 Q 1233.2 525.5 Q 1202.3 490.9 Q 1202.3 430.1 Q 1202.3 369.1 Q 1233.2 334.5 Q 1264.1 299.9 Q 1318.3 299.9 Z M 1451.4 304.4 L 1659.3 304.4 L 1659.3 353.3 L 1584.6 353.3 L 1584.6 555.2 L 1526.3 555.2 L 1526.3 353.3 L 1451.4 353.3 L 1451.4 304.4 Z" fill="none"/>
<rect x="1071.4" y="411.8" width="257.2" height="36.4" fill="none"/>
<path d="M 685.2 708.1 L 685.2 774.5 Q 662.0 762.9 Q 639.9 757.1 Q 617.8 751.2 Q 598.0 751.2 Q 572.0 751.2 Q 559.5 759.2 Q 547.0 767.1 Q 547.0 783.9 Q 547.0 796.5 Q 555.4 803.6 Q 563.8 810.6 Q 586.1 815.6 L 616.9 822.5 Q 664.2 833.1 Q 683.9 854.5 Q 703.6 875.9 Q 703.6 915.4 Q 703.6 967.2 Q 676.0 992.5 Q 648.4 1017.8 Q 591.5 1017.8 Q 564.6 1017.8 Q 537.6 1012.1 Q 510.7 1006.5 Q 483.6 995.3 L 483.6 927.1 Q 510.7 943.1 Q 535.9 951.2 Q 561.1 959.2 Q 584.6 959.2 Q 608.3 959.2 Q 621.0 950.4 Q 633.7 941.6 Q 633.7 925.2 Q 633.7 910.5 Q 625.1 902.5 Q 616.5 894.5 Q 590.7 888.2 L 562.5 881.3 Q 520.3 871.2 Q 500.7 849.2 Q 481.1 827.2 Q 481.1 789.8 Q 481.1 743.0 Q 508.4 717.8 Q 535.7 692.6 Q 586.5 692.6 Q 609.8 692.6 Q 634.3 696.5 Q 658.9 700.4 Q 685.2 708.1 Z M 767.5 698.2 L 840.4 698.2 L 840.4 812.6 L 945.1 698.2 L 1029.7 698.2 L 893.6 846.7 L 1043.6 1011.7 L 952.4 1011.7 L 840.4 888.2 L 840.4 1011.7 L 767.5 1011.7 L 767.5 698.2 Z M 1067.3 698.2 L 1140.2 698.2 L 1140.2 1011.7 L 1067.3 1011.7 L 1067.3 698.2 Z M 1211.1 698.2 L 1284.0 698.2 L 1284.0 950.6 L 1411.7 950.6 L 1411.7 1011.7 L 1211.1 1011.7 L 1211.1 698.2 Z M 1457.6 698.2 L 1530.5 698.2 L 1530.5 950.6 L 1658.2 950.6 L 1658.2 1011.7 L 1457.6 1011.7 L 1457.6 698.2 Z M 1900.4 708.1 L 1900.4 774.5 Q 1877.3 762.9 Q 1855.1 757.1 Q 1833.0 751.2 Q 1813.3 751.2 Q 1787.3 751.2 Q 1774.8 759.2 Q 1762.3 767.1 Q 1762.3 783.9 Q 1762.3 796.5 Q 1770.7 803.6 Q 1779.1 810.6 Q 1801.3 815.6 L 1832.2 822.5 Q 1879.5 833.1 Q 1899.1 854.5 Q 1918.9 875.9 Q 1918.9 915.4 Q 1918.9 967.2 Q 1891.3 992.5 Q 1863.7 1017.8 Q 1806.8 1017.8 Q 1779.9 1017.8 Q 1752.9 1012.1 Q 1725.9 1006.5 Q 1698.9 995.3 L 1698.9 927.1 Q 1725.9 943.1 Q 1751.1 951.2 Q 1776.3 959.2 Q 1799.8 959.2 Q 1823.6 959.2 Q 1836.2 950.4 Q 1848.9 941.6 Q 1848.9 925.2 Q 1848.9 910.5 Q 1840.3 902.5 Q 1831.7 894.5 Q 1805.9 888.2 L 1777.8 881.3 Q 1735.6 871.2 Q 1716.0 849.2 Q 1696.4 827.2 Q 1696.4 789.8 Q 1696.4 743.0 Q 1723.6 717.8 Q 1750.9 692.6 Q 1801.7 692.6 Q 1825.0 692.6 Q 1849.6 696.5 Q 1874.1 700.4 Q 1900.4 708.1 Z" fill="none"/>
<rect x="998.7" y="832.4" width="402.6" height="45.5" fill="none"/>
<path d="M 742.9 1219.9 L 932.5 1219.9 L 932.5 1259.0 L 811.4 1421.8 L 936.0 1421.8 L 936.0 1470.7 L 739.3 1470.7 L 739.3 1431.5 L 860.5 1268.8 L 742.9 1268.8 L 742.9 1219.9 Z M 1081.3 1262.2 Q 1054.8 1262.2 Q 1040.1 1284.0 Q 1025.4 1305.9 Q 1025.4 1345.5 Q 1025.4 1385.0 Q 1040.1 1406.9 Q 1054.8 1428.7 Q 1081.3 1428.7 Q 1108.0 1428.7 Q 1122.7 1406.9 Q 1137.4 1385.0 Q 1137.4 1345.5 Q 1137.4 1305.9 Q 1122.7 1284.0 Q 1108.0 1262.2 Q 1081.3 1262.2 Z M 1081.3 1215.4 Q 1135.7 1215.4 Q 1166.5 1250.0 Q 1197.4 1284.5 Q 1197.4 1345.5 Q 1197.4 1406.3 Q 1166.5 1440.9 Q 1135.7 1475.6 Q 1081.3 1475.6 Q 1027.1 1475.6 Q 996.2 1440.9 Q 965.3 1406.3 Q 965.3 1345.5 Q 965.3 1284.5 Q 996.2 1250.0 Q 1027.1 1215.4 Q 1081.3 1215.4 Z M 1241.2 1219.9 L 1306.3 1219.9 L 1388.4 1391.9 L 1388.4 1219.9 L 1443.5 1219.9 L 1443.5 1470.7 L 1378.4 1470.7 L 1296.5 1298.7 L 1296.5 1470.7 L 1241.2 1470.7 L 1241.2 1219.9 Z M 1500.2 1219.9 L 1657.3 1219.9 L 1657.3 1268.8 L 1558.6 1268.8 L 1558.6 1315.4 L 1651.4 1315.4 L 1651.4 1364.4 L 1558.6 1364.4 L 1558.6 1421.8 L 1660.7 1421.8 L 1660.7 1470.7 L 1500.2 1470.7 L 1500.2 1219.9 Z" fill="none"/>
<rect x="1071.0" y="1327.2" width="258.0" height="36.4" fill="none"/>
<circle cx="1258.0" cy="1871.5" r="137.75" fill="none"/>
<line x1="1171.0" y1="2089.0" x2="1388.5" y2="2379.0" stroke="#FFFFFF" stroke-width="166.75" stroke-linecap="round"/>
<line x1="1149.25" y1="2132.5" x2="895.5" y2="2408.0" stroke="#FFFFFF" stroke-width="116.0" stroke-linecap="round"/>
<line x1="1330.5" y1="2321.0" x2="1577.0" y2="2234.0" stroke="#FFFFFF" stroke-width="116.0" stroke-linecap="round"/>
<line x1="1308.75" y1="2480.5" x2="1055.0" y2="2843.0" stroke="#FFFFFF" stroke-width="123.25" stroke-linecap="round"/>
<line x1="1345.0" y1="2480.5" x2="1555.25" y2="2799.5" stroke="#FFFFFF" stroke-width="123.25" stroke-linecap="round"/>
<line x1="663.5" y1="2901.0" x2="1736.5" y2="2727.0" stroke="#FFFFFF" stroke-width="43.5" stroke-linecap="round"/>
<line x1="663.5" y1="3060.5" x2="1736.5" y2="2886.5" stroke="#FFFFFF" stroke-width="43.5" stroke-linecap="round"/>
<line x1="663.5" y1="3220.0" x2="1736.5" y2="3046.0" stroke="#FFFFFF" stroke-width="43.5" stroke-linecap="round"/>
<line x1="663.5" y1="3379.5" x2="1736.5" y2="3205.5" stroke="#FFFFFF" stroke-width="43.5" stroke-linecap="round"/>
<line x1="591.0" y1="2828.5" x2="1026.0" y2="3292.5" stroke="#FFFFFF" stroke-width="43.5" stroke-linecap="round"/>
<line x1="1374.0" y1="2741.5" x2="1838.0" y2="3162.0" stroke="#FFFFFF" stroke-width="43.5" stroke-linecap="round"/>
<rect x="935.0" y="2260.0" width="530.0" height="70.0" fill="none"/>
<rect x="1060.0" y="2590.0" width="330.0" height="70.0" fill="none"/>
</g>
<g id="STENCIL_BRIDGES_BACKGROUND_WHITE"/>
</svg>