<svg xmlns="http://www.w3.org/2000/svg" width="24in" height="36in" viewBox="0 0 2400 3600">
<title>05_FR_Zone_vitesse - stencil-ready one-color SVG</title>
<g id="BLACK_CUT_OR_PAINT_AREA">
<path d="M 647.2 278.1 L 876.5 278.1 L 876.5 325.4 L 730.1 522.3 L 880.8 522.3 L 880.8 581.4 L 642.9 581.4 L 642.9 534.1 L 789.4 337.3 L 647.2 337.3 L 647.2 278.1 Z M 1056.5 329.3 Q 1024.4 329.3 Q 1006.6 355.7 Q 988.8 382.1 Q 988.8 430.1 Q 988.8 477.8 Q 1006.6 504.3 Q 1024.4 530.7 Q 1056.5 530.7 Q 1088.8 530.7 Q 1106.5 504.3 Q 1124.4 477.8 Q 1124.4 430.1 Q 1124.4 382.1 Q 1106.5 355.7 Q 1088.8 329.3 Q 1056.5 329.3 Z M 1056.5 272.7 Q 1122.3 272.7 Q 1159.5 314.5 Q 1196.8 356.3 Q 1196.8 430.1 Q 1196.8 503.6 Q 1159.5 545.5 Q 1122.3 587.3 Q 1056.5 587.3 Q 990.9 587.3 Q 953.5 545.5 Q 916.2 503.6 Q 916.2 430.1 Q 916.2 356.3 Q 953.5 314.5 Q 990.9 272.7 Q 1056.5 272.7 Z M 1249.9 278.1 L 1328.5 278.1 L 1427.8 486.1 L 1427.8 278.1 L 1494.5 278.1 L 1494.5 581.4 L 1415.8 581.4 L 1316.7 373.4 L 1316.7 581.4 L 1249.9 581.4 L 1249.9 278.1 Z M 1563.1 278.1 L 1753.0 278.1 L 1753.0 337.3 L 1633.6 337.3 L 1633.6 393.7 L 1745.9 393.7 L 1745.9 452.8 L 1633.6 452.8 L 1633.6 522.3 L 1757.1 522.3 L 1757.1 581.4 L 1563.1 581.4 L 1563.1 278.1 Z" fill="none"/>
<rect x="1044.0" y="408.0" width="312.0" height="44.1" fill="none"/>
<path d="M 175.0 725.1 L 260.9 725.1 L 349.0 997.2 L 436.7 725.1 L 522.8 725.1 L 399.9 1093.7 L 297.9 1093.7 L 175.0 725.1 Z M 566.5 725.1 L 652.2 725.1 L 652.2 1093.7 L 566.5 1093.7 L 566.5 725.1 Z M 696.1 725.1 L 1001.8 725.1 L 1001.8 797.0 L 891.9 797.0 L 891.9 1093.7 L 806.3 1093.7 L 806.3 797.0 L 696.1 797.0 L 696.1 725.1 Z M 1045.9 725.1 L 1276.8 725.1 L 1276.8 797.0 L 1131.7 797.0 L 1131.7 865.5 L 1268.2 865.5 L 1268.2 937.4 L 1131.7 937.4 L 1131.7 1021.9 L 1281.8 1021.9 L 1281.8 1093.7 L 1045.9 1093.7 L 1045.9 725.1 Z M 1587.6 736.7 L 1587.6 814.7 Q 1560.4 801.2 Q 1534.3 794.3 Q 1508.4 787.3 Q 1485.1 787.3 Q 1454.6 787.3 Q 1439.9 796.7 Q 1425.2 806.1 Q 1425.2 825.8 Q 1425.2 840.7 Q 1435.0 849.0 Q 1444.9 857.2 Q 1471.1 863.1 L 1507.3 871.2 Q 1562.9 883.6 Q 1586.1 908.8 Q 1609.3 934.0 Q 1609.3 980.4 Q 1609.3 1041.3 Q 1576.8 1071.1 Q 1544.4 1100.9 Q 1477.5 1100.9 Q 1445.9 1100.9 Q 1414.1 1094.2 Q 1382.4 1087.5 Q 1350.6 1074.4 L 1350.6 994.2 Q 1382.4 1013.0 Q 1412.1 1022.5 Q 1441.7 1032.0 Q 1469.3 1032.0 Q 1497.2 1032.0 Q 1512.1 1021.6 Q 1527.1 1011.2 Q 1527.1 991.9 Q 1527.1 974.7 Q 1517.0 965.3 Q 1506.9 955.9 Q 1476.5 948.5 L 1443.4 940.4 Q 1393.8 928.5 Q 1370.7 902.6 Q 1347.7 876.7 Q 1347.7 832.8 Q 1347.7 777.7 Q 1379.7 748.1 Q 1411.8 718.5 Q 1471.5 718.5 Q 1499.0 718.5 Q 1527.8 723.0 Q 1556.7 727.6 Q 1587.6 736.7 Z M 1892.4 736.7 L 1892.4 814.7 Q 1865.3 801.2 Q 1839.2 794.3 Q 1813.2 787.3 Q 1790.0 787.3 Q 1759.4 787.3 Q 1744.7 796.7 Q 1730.0 806.1 Q 1730.0 825.8 Q 1730.0 840.7 Q 1739.9 849.0 Q 1749.8 857.2 Q 1775.9 863.1 L 1812.2 871.2 Q 1867.8 883.6 Q 1890.9 908.8 Q 1914.2 934.0 Q 1914.2 980.4 Q 1914.2 1041.3 Q 1881.7 1071.1 Q 1849.2 1100.9 Q 1782.3 1100.9 Q 1750.7 1100.9 Q 1719.0 1094.2 Q 1687.3 1087.5 Q 1655.4 1074.4 L 1655.4 994.2 Q 1687.3 1013.0 Q 1716.9 1022.5 Q 1746.5 1032.0 Q 1774.2 1032.0 Q 1802.1 1032.0 Q 1817.0 1021.6 Q 1831.9 1011.2 Q 1831.9 991.9 Q 1831.9 974.7 Q 1821.8 965.3 Q 1811.7 955.9 Q 1781.4 948.5 L 1748.3 940.4 Q 1698.6 928.5 Q 1675.6 902.6 Q 1652.5 876.7 Q 1652.5 832.8 Q 1652.5 777.7 Q 1684.6 748.1 Q 1716.7 718.5 Q 1776.4 718.5 Q 1803.8 718.5 Q 1832.6 723.0 Q 1861.5 727.6 Q 1892.4 736.7 Z M 1989.2 725.1 L 2220.0 725.1 L 2220.0 797.0 L 2074.9 797.0 L 2074.9 865.5 L 2211.4 865.5 L 2211.4 937.4 L 2074.9 937.4 L 2074.9 1021.9 L 2225.0 1021.9 L 2225.0 1093.7 L 1989.2 1093.7 L 1989.2 725.1 Z" fill="none"/>
<rect x="913.0" y="882.9" width="574.0" height="53.5" fill="none"/>
<circle cx="993.0" cy="2062.5" r="92.0" fill="none"/>
<line x1="924.0" y1="2235.0" x2="1096.5" y2="2419.0" stroke="#FFFFFF" stroke-width="109.24999999999999" stroke-linecap="round"/>
<line x1="952.75" y1="2281.0" x2="763.0" y2="2453.5" stroke="#FFFFFF" stroke-width="80.5" stroke-linecap="round"/>
<line x1="1062.0" y1="2373.0" x2="1223.0" y2="2258.0" stroke="#FFFFFF" stroke-width="80.5" stroke-linecap="round"/>
<line x1="1016.0" y1="2499.5" x2="855.0" y2="2833.0" stroke="#FFFFFF" stroke-width="92.0" stroke-linecap="round"/>
<line x1="1056.25" y1="2505.25" x2="1269.0" y2="2695.0" stroke="#FFFFFF" stroke-width="92.0" stroke-linecap="round"/>
<line x1="579.0" y1="2361.5" x2="326.0" y2="2361.5" stroke="#FFFFFF" stroke-width="28.749999999999996" stroke-linecap="round"/>
<line x1="556.0" y1="2488.0" x2="280.0" y2="2488.0" stroke="#FFFFFF" stroke-width="28.749999999999996" stroke-linecap="round"/>
<line x1="533.0" y1="2614.5" x2="234.0" y2="2614.5" stroke="#FFFFFF" stroke-width="28.749999999999996" stroke-linecap="round"/>
<circle cx="1545.0" cy="2062.5" r="92.0" fill="none"/>
<line x1="1476.0" y1="2235.0" x2="1648.5" y2="2419.0" stroke="#FFFFFF" stroke-width="109.24999999999999" stroke-linecap="round"/>
<line x1="1504.75" y1="2281.0" x2="1315.0" y2="2453.5" stroke="#FFFFFF" stroke-width="80.5" stroke-linecap="round"/>
<line x1="1614.0" y1="2373.0" x2="1775.0" y2="2258.0" stroke="#FFFFFF" stroke-width="80.5" stroke-linecap="round"/>
<line x1="1568.0" y1="2499.5" x2="1407.0" y2="2833.0" stroke="#FFFFFF" stroke-width="92.0" stroke-linecap="round"/>
<line x1="1608.25" y1="2505.25" x2="1821.0" y2="2695.0" stroke="#FFFFFF" stroke-width="92.0" stroke-linecap="round"/>
<line x1="1131.0" y1="2361.5" x2="878.0" y2="2361.5" stroke="#FFFFFF" stroke-width="28.749999999999996" stroke-linecap="round"/>
<line x1="1108.0" y1="2488.0" x2="832.0" y2="2488.0" stroke="#FFFFFF" stroke-width="28.749999999999996" stroke-linecap="round"/>
<line x1="1085.0" y1="2614.5" x2="786.0" y2="2614.5" stroke="#FFFFFF" stroke-width="28.749999999999996" stroke-linecap="round"/>
<rect x="935.0" y="2260.0" width="530.0" height="70.0" fill="none"/>
<rect x="1060.0" y="2590.0" width="330.0" height="70.0" fill="none"/>
</g>
<g id="STENCIL_BRIDGES_BACKGROUND_WHITE"/>
</svg>