<svg xmlns="http://www.w3.org/2000/svg" width="24in" height="36in" viewBox="0 0 2400 3600">
<title>01_FR_Zone_agilite_des_mains - stencil-ready one-color SVG</title>
<g id="BLACK_CUT_OR_PAINT_AREA">
<path d="M 742.9 304.4 L 932.5 304.4 L 932.5 343.5 L 811.4 506.4 L 936.0 506.4 L 936.0 555.2 L 739.3 555.2 L 739.3 516.1 L 860.5 353.3 L 742.9 353.3 L 742.9 304.4 Z M 1081.3 346.8 Q 1054.8 346.8 Q 1040.1 368.6 Q 1025.4 390.4 Q 1025.4 430.1 Q 1025.4 469.5 Q 1040.1 491.4 Q 1054.8 513.2 Q 1081.3 513.2 Q 1108.0 513.2 Q 1122.7 491.4 Q 1137.4 469.5 Q 1137.4 430.1 Q 1137.4 390.4 Q 1122.7 368.6 Q 1108.0 346.8 Q 1081.3 346.8 Z M 1081.3 299.9 Q 1135.7 299.9 Q 1166.5 334.5 Q 1197.4 369.1 Q 1197.4 430.1 Q 1197.4 490.9 Q 1166.5 525.5 Q 1135.7 560.1 Q 1081.3 560.1 Q 1027.1 560.1 Q 996.2 525.5 Q 965.3 490.9 Q 965.3 430.1 Q 965.3 369.1 Q 996.2 334.5 Q 1027.1 299.9 Q 1081.3 299.9 Z M 1241.2 304.4 L 1306.3 304.4 L 1388.4 476.4 L 1388.4 304.4 L 1443.5 304.4 L 1443.5 555.2 L 1378.4 555.2 L 1296.5 383.2 L 1296.5 555.2 L 1241.2 555.2 L 1241.2 304.4 Z M 1500.2 304.4 L 1657.3 304.4 L 1657.3 353.3 L 1558.6 353.3 L 1558.6 400.0 L 1651.4 400.0 L 1651.4 448.9 L 1558.6 448.9 L 1558.6 506.4 L 1660.7 506.4 L 1660.7 555.2 L 1500.2 555.2 L 1500.2 304.4 Z" fill="none"/>
<rect x="1071.0" y="411.8" width="258.0" height="36.4" fill="none"/>
<path d="M 247.7 798.8 L 247.7 989.6 L 273.7 989.6 Q 318.1 989.6 Q 341.5 965.1 Q 365.0 940.6 Q 365.0 893.9 Q 365.0 847.4 Q 341.6 823.2 Q 318.3 798.8 Q 273.7 798.8 L 247.7 798.8 Z M 175.0 737.9 L 251.7 737.9 Q 315.7 737.9 Q 347.0 748.0 Q 378.4 758.2 Q 400.8 782.5 Q 420.7 803.7 Q 430.3 831.3 Q 439.9 859.0 Q 439.9 893.9 Q 439.9 929.3 Q 430.3 957.1 Q 420.7 984.8 Q 400.8 1005.9 Q 378.1 1030.3 Q 346.5 1040.4 Q 314.9 1050.6 Q 251.7 1050.6 L 175.0 1050.6 L 175.0 737.9 Z M 541.5 737.9 L 541.5 854.1 L 496.9 854.1 L 496.9 737.9 L 541.5 737.9 Z M 784.5 993.6 L 670.9 993.6 L 653.0 1050.6 L 580.0 1050.6 L 684.3 737.9 L 770.9 737.9 L 875.1 1050.6 L 802.1 1050.6 L 784.5 993.6 Z M 689.0 935.6 L 766.0 935.6 L 727.7 811.2 L 689.0 935.6 Z M 1165.2 1027.3 Q 1138.0 1042.0 Q 1108.8 1049.4 Q 1079.6 1056.7 Q 1048.6 1056.7 Q 978.2 1056.7 Q 937.1 1013.0 Q 896.1 969.3 Q 896.1 894.5 Q 896.1 818.9 Q 937.9 775.6 Q 979.6 732.2 Q 1052.6 732.2 Q 1080.6 732.2 Q 1106.4 738.1 Q 1132.1 744.0 Q 1155.0 755.5 L 1155.0 820.2 Q 1131.3 805.3 Q 1108.0 798.0 Q 1084.8 790.7 Q 1061.3 790.7 Q 1018.0 790.7 Q 994.5 817.6 Q 971.1 844.5 Q 971.1 894.5 Q 971.1 944.1 Q 993.6 971.2 Q 1016.3 998.2 Q 1058.0 998.2 Q 1069.3 998.2 Q 1079.0 996.7 Q 1088.8 995.1 Q 1096.3 991.7 L 1096.3 931.0 L 1052.2 931.0 L 1052.2 876.9 L 1165.2 876.9 L 1165.2 1027.3 Z M 1228.9 737.9 L 1301.6 737.9 L 1301.6 1050.6 L 1228.9 1050.6 L 1228.9 737.9 Z M 1372.3 737.9 L 1445.1 737.9 L 1445.1 989.6 L 1572.4 989.6 L 1572.4 1050.6 L 1372.3 1050.6 L 1372.3 737.9 Z M 1618.2 737.9 L 1690.9 737.9 L 1690.9 1050.6 L 1618.2 1050.6 L 1618.2 737.9 Z M 1728.2 737.9 L 1987.5 737.9 L 1987.5 798.8 L 1894.3 798.8 L 1894.3 1050.6 L 1821.6 1050.6 L 1821.6 798.8 L 1728.2 798.8 L 1728.2 737.9 Z M 2024.9 737.9 L 2220.8 737.9 L 2220.8 798.8 L 2097.7 798.8 L 2097.7 857.0 L 2213.5 857.0 L 2213.5 918.0 L 2097.7 918.0 L 2097.7 989.6 L 2225.0 989.6 L 2225.0 1050.6 L 2024.9 1050.6 L 2024.9 737.9 Z M 2129.4 653.7 L 2182.8 653.7 L 2129.0 709.0 L 2092.2 709.0 L 2129.4 653.7 Z" fill="none"/>
<rect x="913.0" y="827.0" width="574.0" height="56.4" fill="none"/>
<path d="M 238.2 1340.1 L 238.2 1505.8 L 260.7 1505.8 Q 299.3 1505.8 Q 319.7 1484.5 Q 340.1 1463.2 Q 340.1 1422.6 Q 340.1 1382.3 Q 319.7 1361.2 Q 299.5 1340.1 Q 260.7 1340.1 L 238.2 1340.1 Z M 175.0 1287.1 L 241.6 1287.1 Q 297.3 1287.1 Q 324.5 1295.9 Q 351.7 1304.7 Q 371.2 1325.9 Q 388.4 1344.3 Q 396.8 1368.3 Q 405.2 1392.3 Q 405.2 1422.6 Q 405.2 1453.4 Q 396.8 1477.5 Q 388.4 1501.6 Q 371.2 1520.0 Q 351.5 1541.1 Q 324.0 1550.0 Q 296.6 1558.8 Q 241.6 1558.8 L 175.0 1558.8 L 175.0 1287.1 Z M 453.4 1287.1 L 623.5 1287.1 L 623.5 1340.1 L 516.6 1340.1 L 516.6 1390.6 L 617.2 1390.6 L 617.2 1443.6 L 516.6 1443.6 L 516.6 1505.8 L 627.2 1505.8 L 627.2 1558.8 L 453.4 1558.8 L 453.4 1287.1 Z M 852.6 1295.6 L 852.6 1353.2 Q 832.5 1343.2 Q 813.3 1338.1 Q 794.2 1333.0 Q 777.1 1333.0 Q 754.5 1333.0 Q 743.7 1339.9 Q 732.9 1346.8 Q 732.9 1361.3 Q 732.9 1372.3 Q 740.1 1378.4 Q 747.4 1384.4 Q 766.7 1388.8 L 793.4 1394.8 Q 834.4 1403.9 Q 851.5 1422.5 Q 868.6 1441.0 Q 868.6 1475.3 Q 868.6 1520.2 Q 844.7 1542.1 Q 820.7 1564.1 Q 771.4 1564.1 Q 748.1 1564.1 Q 724.7 1559.1 Q 701.4 1554.2 Q 677.9 1544.5 L 677.9 1485.5 Q 701.4 1499.3 Q 723.2 1506.3 Q 745.0 1513.3 Q 765.4 1513.3 Q 786.0 1513.3 Q 797.0 1505.7 Q 808.0 1498.0 Q 808.0 1483.8 Q 808.0 1471.1 Q 800.5 1464.1 Q 793.1 1457.2 Q 770.7 1451.7 L 746.3 1445.7 Q 709.8 1437.0 Q 692.8 1417.9 Q 675.8 1398.8 Q 675.8 1366.4 Q 675.8 1325.9 Q 699.4 1304.0 Q 723.0 1282.2 Q 767.0 1282.2 Q 787.3 1282.2 Q 808.5 1285.6 Q 829.8 1289.0 Q 852.6 1295.6 Z M 1040.5 1287.1 L 1120.8 1287.1 L 1176.5 1432.5 L 1232.5 1287.1 L 1312.5 1287.1 L 1312.5 1558.8 L 1252.9 1558.8 L 1252.9 1360.0 L 1196.6 1506.5 L 1156.6 1506.5 L 1100.4 1360.0 L 1100.4 1558.8 L 1040.5 1558.8 L 1040.5 1287.1 Z M 1522.7 1509.3 L 1424.0 1509.3 L 1408.4 1558.8 L 1345.1 1558.8 L 1435.7 1287.1 L 1510.9 1287.1 L 1601.5 1558.8 L 1538.0 1558.8 L 1522.7 1509.3 Z M 1439.7 1458.8 L 1506.7 1458.8 L 1473.4 1350.8 L 1439.7 1458.8 Z M 1633.7 1287.1 L 1696.8 1287.1 L 1696.8 1558.8 L 1633.7 1558.8 L 1633.7 1287.1 Z M 1758.3 1287.1 L 1828.7 1287.1 L 1917.7 1473.4 L 1917.7 1287.1 L 1977.4 1287.1 L 1977.4 1558.8 L 1906.9 1558.8 L 1818.2 1372.4 L 1818.2 1558.8 L 1758.3 1558.8 L 1758.3 1287.1 Z M 2209.0 1295.6 L 2209.0 1353.2 Q 2189.0 1343.2 Q 2169.7 1338.1 Q 2150.6 1333.0 Q 2133.5 1333.0 Q 2110.9 1333.0 Q 2100.1 1339.9 Q 2089.3 1346.8 Q 2089.3 1361.3 Q 2089.3 1372.3 Q 2096.6 1378.4 Q 2103.8 1384.4 Q 2123.1 1388.8 L 2149.8 1394.8 Q 2190.8 1403.9 Q 2207.9 1422.5 Q 2225.0 1441.0 Q 2225.0 1475.3 Q 2225.0 1520.2 Q 2201.1 1542.1 Q 2177.1 1564.1 Q 2127.8 1564.1 Q 2104.5 1564.1 Q 2081.1 1559.1 Q 2057.8 1554.2 Q 2034.3 1544.5 L 2034.3 1485.5 Q 2057.8 1499.3 Q 2079.6 1506.3 Q 2101.5 1513.3 Q 2121.8 1513.3 Q 2142.4 1513.3 Q 2153.4 1505.7 Q 2164.4 1498.0 Q 2164.4 1483.8 Q 2164.4 1471.1 Q 2156.9 1464.1 Q 2149.5 1457.2 Q 2127.1 1451.7 L 2102.7 1445.7 Q 2066.2 1437.0 Q 2049.2 1417.9 Q 2032.2 1398.8 Q 2032.2 1366.4 Q 2032.2 1325.9 Q 2055.8 1304.0 Q 2079.4 1282.2 Q 2123.5 1282.2 Q 2143.7 1282.2 Q 2164.9 1285.6 Q 2186.2 1289.0 Q 2209.0 1295.6 Z" fill="none"/>
<rect x="913.0" y="1403.4" width="574.0" height="39.5" fill="none"/>
<circle cx="787.5" cy="2017.4819874549012" r="123.75" fill="none"/>
<circle cx="1612.5" cy="2017.4819874549012" r="123.75" fill="none"/>
<line x1="606.0" y1="2215.481987454901" x2="985.5" y2="2479.481987454901" stroke="#FFFFFF" stroke-width="156.75" stroke-linecap="round"/>
<line x1="985.5" y1="2479.481987454901" x2="1307.25" y2="2446.481987454901" stroke="#FFFFFF" stroke-width="156.75" stroke-linecap="round"/>
<line x1="1794.0" y1="2215.481987454901" x2="1414.5" y2="2479.481987454901" stroke="#FFFFFF" stroke-width="156.75" stroke-linecap="round"/>
<line x1="1414.5" y1="2479.481987454901" x2="1092.75" y2="2446.481987454901" stroke="#FFFFFF" stroke-width="156.75" stroke-linecap="round"/>
<line x1="1035.0" y1="2561.981987454901" x2="746.25" y2="3073.481987454901" stroke="#FFFFFF" stroke-width="148.5" stroke-linecap="round"/>
<line x1="1365.0" y1="2561.981987454901" x2="1653.75" y2="3073.481987454901" stroke="#FFFFFF" stroke-width="148.5" stroke-linecap="round"/>
<rect x="935.0" y="2340.0" width="530.0" height="70.0" fill="none"/>
<rect x="1060.0" y="2670.0" width="330.0" height="70.0" fill="none"/>
</g>
<g id="STENCIL_BRIDGES_BACKGROUND_WHITE"/>
</svg>