<svg xmlns="http://www.w3.org/2000/svg" width="24in" height="36in" viewBox="0 0 2400 3600">
<title>04_FR_Zone_IQ_de_jeu - stencil-ready one-color SVG</title>
<g id="BLACK_CUT_OR_PAINT_AREA">
<path d="M 742.9 304.4 L 932.5 304.4 L 932.5 343.5 L 811.4 506.4 L 936.0 506.4 L 936.0 555.2 L 739.3 555.2 L 739.3 516.1 L 860.5 353.3 L 742.9 353.3 L 742.9 304.4 Z M 1081.3 346.8 Q 1054.8 346.8 Q 1040.1 368.6 Q 1025.4 390.4 Q 1025.4 430.1 Q 1025.4 469.5 Q 1040.1 491.4 Q 1054.8 513.2 Q 1081.3 513.2 Q 1108.0 513.2 Q 1122.7 491.4 Q 1137.4 469.5 Q 1137.4 430.1 Q 1137.4 390.4 Q 1122.7 368.6 Q 1108.0 346.8 Q 1081.3 346.8 Z M 1081.3 299.9 Q 1135.7 299.9 Q 1166.5 334.5 Q 1197.4 369.1 Q 1197.4 430.1 Q 1197.4 490.9 Q 1166.5 525.5 Q 1135.7 560.1 Q 1081.3 560.1 Q 1027.1 560.1 Q 996.2 525.5 Q 965.3 490.9 Q 965.3 430.1 Q 965.3 369.1 Q 996.2 334.5 Q 1027.1 299.9 Q 1081.3 299.9 Z M 1241.2 304.4 L 1306.3 304.4 L 1388.4 476.4 L 1388.4 304.4 L 1443.5 304.4 L 1443.5 555.2 L 1378.4 555.2 L 1296.5 383.2 L 1296.5 555.2 L 1241.2 555.2 L 1241.2 304.4 Z M 1500.2 304.4 L 1657.3 304.4 L 1657.3 353.3 L 1558.6 353.3 L 1558.6 400.0 L 1651.4 400.0 L 1651.4 448.9 L 1558.6 448.9 L 1558.6 506.4 L 1660.7 506.4 L 1660.7 555.2 L 1500.2 555.2 L 1500.2 304.4 Z" fill="none"/>
<rect x="1071.0" y="411.8" width="258.0" height="36.4" fill="none"/>
<path d="M 991.1 669.9 L 1064.0 669.9 L 1064.0 983.4 L 991.1 983.4 L 991.1 669.9 Z M 1271.6 989.0 L 1265.9 989.0 Q 1196.3 989.0 Q 1157.5 946.2 Q 1118.8 903.4 Q 1118.8 827.0 Q 1118.8 750.7 Q 1157.4 707.5 Q 1196.1 664.3 Q 1263.8 664.3 Q 1332.5 664.3 Q 1370.7 707.1 Q 1408.9 749.9 Q 1408.9 827.0 Q 1408.9 879.9 Q 1388.6 918.1 Q 1368.4 956.3 Q 1330.2 975.6 L 1387.1 1046.2 L 1317.8 1046.2 L 1271.6 989.0 Z M 1263.8 722.8 Q 1230.7 722.8 Q 1212.2 750.1 Q 1193.9 777.4 Q 1193.9 827.0 Q 1193.9 877.4 Q 1211.8 904.2 Q 1229.9 930.9 Q 1263.8 930.9 Q 1297.2 930.9 Q 1315.6 903.6 Q 1334.0 876.3 Q 1334.0 827.0 Q 1334.0 777.4 Q 1315.6 750.1 Q 1297.2 722.8 Q 1263.8 722.8 Z" fill="none"/>
<rect x="1141.5" y="828.5" width="117.0" height="53.5" fill="none"/>
<path d="M 587.1 1263.5 L 587.1 1454.7 L 613.1 1454.7 Q 657.6 1454.7 Q 681.1 1430.1 Q 704.6 1405.6 Q 704.6 1358.7 Q 704.6 1312.2 Q 681.2 1287.8 Q 657.8 1263.5 Q 613.1 1263.5 L 587.1 1263.5 Z M 514.2 1202.3 L 591.0 1202.3 Q 655.3 1202.3 Q 686.6 1212.5 Q 718.1 1222.7 Q 740.5 1247.1 Q 760.5 1268.3 Q 770.1 1296.0 Q 779.8 1323.7 Q 779.8 1358.7 Q 779.8 1394.3 Q 770.1 1422.1 Q 760.5 1449.9 Q 740.5 1471.1 Q 717.8 1495.5 Q 686.1 1505.7 Q 654.4 1515.8 Q 591.0 1515.8 L 514.2 1515.8 L 514.2 1202.3 Z M 835.4 1202.3 L 1031.7 1202.3 L 1031.7 1263.5 L 908.3 1263.5 L 908.3 1321.8 L 1024.4 1321.8 L 1024.4 1382.9 L 908.3 1382.9 L 908.3 1454.7 L 1036.0 1454.7 L 1036.0 1515.8 L 835.4 1515.8 L 835.4 1202.3 Z M 1234.5 1202.3 L 1307.4 1202.3 L 1307.4 1485.4 Q 1307.4 1544.0 Q 1278.7 1572.9 Q 1250.1 1601.9 Q 1192.1 1601.9 L 1177.2 1601.9 L 1177.2 1540.8 L 1188.6 1540.8 Q 1211.2 1540.8 Q 1222.8 1526.7 Q 1234.5 1512.7 Q 1234.5 1485.4 L 1234.5 1202.3 Z M 1378.1 1202.3 L 1574.5 1202.3 L 1574.5 1263.5 L 1451.0 1263.5 L 1451.0 1321.8 L 1567.1 1321.8 L 1567.1 1382.9 L 1451.0 1382.9 L 1451.0 1454.7 L 1578.7 1454.7 L 1578.7 1515.8 L 1378.1 1515.8 L 1378.1 1202.3 Z M 1642.5 1202.3 L 1715.4 1202.3 L 1715.4 1390.2 Q 1715.4 1429.1 Q 1726.8 1445.8 Q 1738.2 1462.5 Q 1764.1 1462.5 Q 1790.1 1462.5 Q 1801.5 1445.8 Q 1813.0 1429.1 Q 1813.0 1390.2 L 1813.0 1202.3 L 1885.8 1202.3 L 1885.8 1390.2 Q 1885.8 1456.8 Q 1855.7 1489.4 Q 1825.6 1521.9 Q 1764.1 1521.9 Q 1702.6 1521.9 Q 1672.5 1489.4 Q 1642.5 1456.8 Q 1642.5 1390.2 L 1642.5 1202.3 Z" fill="none"/>
<rect x="1008.0" y="1374.1" width="384.1" height="55.9" fill="none"/>
<circle cx="282.5" cy="2506.6615625" r="175.0" fill="none"/>
<line x1="195.0" y1="2619.1615625" x2="70.0" y2="2806.6615625" stroke="#FFFFFF" stroke-width="100.0" stroke-linecap="round"/>
<rect x="70.0" y="2806.6615625" width="360*s" height="280*s" rx="45*s" fill="none"/>
<line x1="613.75" y1="2100.4115625" x2="726.25" y2="2212.9115625" stroke="#FFFFFF" stroke-width="50.0" stroke-linecap="round"/>
<line x1="726.25" y1="2100.4115625" x2="613.75" y2="2212.9115625" stroke="#FFFFFF" stroke-width="50.0" stroke-linecap="round"/>
<circle cx="945.0" cy="2106.6615625" r="70*s" fill="none" stroke="#FFFFFF" stroke-width="38*s"/>
<line x1="1113.75" y1="2262.9115625" x2="1226.25" y2="2375.4115625" stroke="#FFFFFF" stroke-width="50.0" stroke-linecap="round"/>
<line x1="1226.25" y1="2262.9115625" x2="1113.75" y2="2375.4115625" stroke="#FFFFFF" stroke-width="50.0" stroke-linecap="round"/>
<circle cx="870.0" cy="2506.6615625" r="70*s" fill="none" stroke="#FFFFFF" stroke-width="38*s"/>
<circle cx="1270.0" cy="2606.6615625" r="70*s" fill="none" stroke="#FFFFFF" stroke-width="38*s"/>
<line x1="1438.75" y1="2200.4115625" x2="1551.25" y2="2312.9115625" stroke="#FFFFFF" stroke-width="50.0" stroke-linecap="round"/>
<line x1="1551.25" y1="2200.4115625" x2="1438.75" y2="2312.9115625" stroke="#FFFFFF" stroke-width="50.0" stroke-linecap="round"/>
<line x1="1032.5" y1="2556.6615625" x2="1370.0" y2="2319.1615625" stroke="#FFFFFF" stroke-width="56.25" stroke-linecap="round"/>
<line x1="1370.0" y1="2319.1615625" x2="1482.5" y2="2081.6615625" stroke="#FFFFFF" stroke-width="56.25" stroke-linecap="round"/>
<line x1="1482.5" y1="2081.6615625" x2="1513.75" y2="2206.6615625" stroke="#FFFFFF" stroke-width="56.25" stroke-linecap="round"/>
<line x1="1482.5" y1="2081.6615625" x2="1382.5" y2="2156.6615625" stroke="#FFFFFF" stroke-width="56.25" stroke-linecap="round"/>
<rect x="935.0" y="2436.7" width="530.0" height="70.0" fill="none"/>
<rect x="1060.0" y="2766.7" width="330.0" height="70.0" fill="none"/>
</g>
<g id="STENCIL_BRIDGES_BACKGROUND_WHITE"/>
</svg>