<svg xmlns="http://www.w3.org/2000/svg" width="24in" height="36in" viewBox="0 0 2400 3600">
<title>03_FR_Zone_agilite_generale - stencil-ready one-color SVG</title>
<g id="BLACK_CUT_OR_PAINT_AREA">
<path d="M 742.9 304.4 L 932.5 304.4 L 932.5 343.5 L 811.4 506.4 L 936.0 506.4 L 936.0 555.2 L 739.3 555.2 L 739.3 516.1 L 860.5 353.3 L 742.9 353.3 L 742.9 304.4 Z M 1081.3 346.8 Q 1054.8 346.8 Q 1040.1 368.6 Q 1025.4 390.4 Q 1025.4 430.1 Q 1025.4 469.5 Q 1040.1 491.4 Q 1054.8 513.2 Q 1081.3 513.2 Q 1108.0 513.2 Q 1122.7 491.4 Q 1137.4 469.5 Q 1137.4 430.1 Q 1137.4 390.4 Q 1122.7 368.6 Q 1108.0 346.8 Q 1081.3 346.8 Z M 1081.3 299.9 Q 1135.7 299.9 Q 1166.5 334.5 Q 1197.4 369.1 Q 1197.4 430.1 Q 1197.4 490.9 Q 1166.5 525.5 Q 1135.7 560.1 Q 1081.3 560.1 Q 1027.1 560.1 Q 996.2 525.5 Q 965.3 490.9 Q 965.3 430.1 Q 965.3 369.1 Q 996.2 334.5 Q 1027.1 299.9 Q 1081.3 299.9 Z M 1241.2 304.4 L 1306.3 304.4 L 1388.4 476.4 L 1388.4 304.4 L 1443.5 304.4 L 1443.5 555.2 L 1378.4 555.2 L 1296.5 383.2 L 1296.5 555.2 L 1241.2 555.2 L 1241.2 304.4 Z M 1500.2 304.4 L 1657.3 304.4 L 1657.3 353.3 L 1558.6 353.3 L 1558.6 400.0 L 1651.4 400.0 L 1651.4 448.9 L 1558.6 448.9 L 1558.6 506.4 L 1660.7 506.4 L 1660.7 555.2 L 1500.2 555.2 L 1500.2 304.4 Z" fill="none"/>
<rect x="1071.0" y="411.8" width="258.0" height="36.4" fill="none"/>
<path d="M 247.7 798.8 L 247.7 989.6 L 273.7 989.6 Q 318.1 989.6 Q 341.5 965.1 Q 365.0 940.6 Q 365.0 893.9 Q 365.0 847.4 Q 341.6 823.2 Q 318.3 798.8 Q 273.7 798.8 L 247.7 798.8 Z M 175.0 737.9 L 251.7 737.9 Q 315.7 737.9 Q 347.0 748.0 Q 378.4 758.2 Q 400.8 782.5 Q 420.7 803.7 Q 430.3 831.3 Q 439.9 859.0 Q 439.9 893.9 Q 439.9 929.3 Q 430.3 957.1 Q 420.7 984.8 Q 400.8 1005.9 Q 378.1 1030.3 Q 346.5 1040.4 Q 314.9 1050.6 Q 251.7 1050.6 L 175.0 1050.6 L 175.0 737.9 Z M 541.5 737.9 L 541.5 854.1 L 496.9 854.1 L 496.9 737.9 L 541.5 737.9 Z M 784.5 993.6 L 670.9 993.6 L 653.0 1050.6 L 580.0 1050.6 L 684.3 737.9 L 770.9 737.9 L 875.1 1050.6 L 802.1 1050.6 L 784.5 993.6 Z M 689.0 935.6 L 766.0 935.6 L 727.7 811.2 L 689.0 935.6 Z M 1165.2 1027.3 Q 1138.0 1042.0 Q 1108.8 1049.4 Q 1079.6 1056.7 Q 1048.6 1056.7 Q 978.2 1056.7 Q 937.1 1013.0 Q 896.1 969.3 Q 896.1 894.5 Q 896.1 818.9 Q 937.9 775.6 Q 979.6 732.2 Q 1052.6 732.2 Q 1080.6 732.2 Q 1106.4 738.1 Q 1132.1 744.0 Q 1155.0 755.5 L 1155.0 820.2 Q 1131.3 805.3 Q 1108.0 798.0 Q 1084.8 790.7 Q 1061.3 790.7 Q 1018.0 790.7 Q 994.5 817.6 Q 971.1 844.5 Q 971.1 894.5 Q 971.1 944.1 Q 993.6 971.2 Q 1016.3 998.2 Q 1058.0 998.2 Q 1069.3 998.2 Q 1079.0 996.7 Q 1088.8 995.1 Q 1096.3 991.7 L 1096.3 931.0 L 1052.2 931.0 L 1052.2 876.9 L 1165.2 876.9 L 1165.2 1027.3 Z M 1228.9 737.9 L 1301.6 737.9 L 1301.6 1050.6 L 1228.9 1050.6 L 1228.9 737.9 Z M 1372.3 737.9 L 1445.1 737.9 L 1445.1 989.6 L 1572.4 989.6 L 1572.4 1050.6 L 1372.3 1050.6 L 1372.3 737.9 Z M 1618.2 737.9 L 1690.9 737.9 L 1690.9 1050.6 L 1618.2 1050.6 L 1618.2 737.9 Z M 1728.2 737.9 L 1987.5 737.9 L 1987.5 798.8 L 1894.3 798.8 L 1894.3 1050.6 L 1821.6 1050.6 L 1821.6 798.8 L 1728.2 798.8 L 1728.2 737.9 Z M 2024.9 737.9 L 2220.8 737.9 L 2220.8 798.8 L 2097.7 798.8 L 2097.7 857.0 L 2213.5 857.0 L 2213.5 918.0 L 2097.7 918.0 L 2097.7 989.6 L 2225.0 989.6 L 2225.0 1050.6 L 2024.9 1050.6 L 2024.9 737.9 Z M 2129.4 653.7 L 2182.8 653.7 L 2129.0 709.0 L 2092.2 709.0 L 2129.4 653.7 Z" fill="none"/>
<rect x="913.0" y="827.0" width="574.0" height="56.4" fill="none"/>
<path d="M 422.9 1581.7 Q 397.9 1595.2 Q 370.9 1602.0 Q 344.0 1608.8 Q 315.5 1608.8 Q 250.6 1608.8 Q 212.8 1568.5 Q 175.0 1528.2 Q 175.0 1459.4 Q 175.0 1389.7 Q 213.5 1349.8 Q 251.9 1309.8 Q 319.1 1309.8 Q 345.0 1309.8 Q 368.7 1315.2 Q 392.4 1320.6 Q 413.5 1331.2 L 413.5 1390.8 Q 391.7 1377.2 Q 370.3 1370.4 Q 348.8 1363.7 Q 327.2 1363.7 Q 287.3 1363.7 Q 265.7 1388.5 Q 244.0 1413.2 Q 244.0 1459.4 Q 244.0 1505.1 Q 264.9 1530.0 Q 285.7 1554.9 Q 324.1 1554.9 Q 334.6 1554.9 Q 343.5 1553.5 Q 352.5 1552.0 Q 359.5 1548.9 L 359.5 1493.0 L 318.8 1493.0 L 318.8 1443.1 L 422.9 1443.1 L 422.9 1581.7 Z M 481.6 1315.0 L 662.0 1315.0 L 662.0 1371.2 L 548.6 1371.2 L 548.6 1424.8 L 655.3 1424.8 L 655.3 1481.0 L 548.6 1481.0 L 548.6 1547.0 L 665.9 1547.0 L 665.9 1603.1 L 481.6 1603.1 L 481.6 1315.0 Z M 577.9 1237.5 L 627.1 1237.5 L 577.5 1288.4 L 543.5 1288.4 L 577.9 1237.5 Z M 724.6 1315.0 L 799.3 1315.0 L 893.6 1512.6 L 893.6 1315.0 L 956.9 1315.0 L 956.9 1603.1 L 882.2 1603.1 L 788.0 1405.5 L 788.0 1603.1 L 724.6 1603.1 L 724.6 1315.0 Z M 1022.1 1315.0 L 1202.6 1315.0 L 1202.6 1371.2 L 1089.1 1371.2 L 1089.1 1424.8 L 1195.8 1424.8 L 1195.8 1481.0 L 1089.1 1481.0 L 1089.1 1547.0 L 1206.5 1547.0 L 1206.5 1603.1 L 1022.1 1603.1 L 1022.1 1315.0 Z M 1118.4 1237.5 L 1167.6 1237.5 L 1118.0 1288.4 L 1084.1 1288.4 L 1118.4 1237.5 Z M 1360.3 1442.8 Q 1381.1 1442.8 Q 1390.2 1434.1 Q 1399.4 1425.4 Q 1399.4 1405.5 Q 1399.4 1385.8 Q 1390.2 1377.4 Q 1381.1 1368.8 Q 1360.3 1368.8 L 1332.1 1368.8 L 1332.1 1442.8 L 1360.3 1442.8 Z M 1332.1 1494.1 L 1332.1 1603.1 L 1265.1 1603.1 L 1265.1 1315.0 L 1367.2 1315.0 Q 1418.5 1315.0 Q 1442.3 1334.1 Q 1466.2 1353.2 Q 1466.2 1394.5 Q 1466.2 1423.1 Q 1453.8 1441.4 Q 1441.5 1459.7 Q 1416.4 1468.5 Q 1430.1 1471.9 Q 1441.0 1484.2 Q 1451.9 1496.4 Q 1462.9 1521.3 L 1499.2 1603.1 L 1428.0 1603.1 L 1396.5 1531.6 Q 1386.9 1509.9 Q 1377.0 1502.0 Q 1367.2 1494.1 Q 1351.0 1494.1 L 1332.1 1494.1 Z M 1696.4 1550.6 L 1591.8 1550.6 L 1575.2 1603.1 L 1508.0 1603.1 L 1604.1 1315.0 L 1683.9 1315.0 L 1779.9 1603.1 L 1712.6 1603.1 L 1696.4 1550.6 Z M 1608.4 1497.2 L 1679.4 1497.2 L 1644.1 1382.6 L 1608.4 1497.2 Z M 1814.1 1315.0 L 1881.1 1315.0 L 1881.1 1547.0 L 1998.4 1547.0 L 1998.4 1603.1 L 1814.1 1603.1 L 1814.1 1315.0 Z M 2040.7 1315.0 L 2221.1 1315.0 L 2221.1 1371.2 L 2107.7 1371.2 L 2107.7 1424.8 L 2214.4 1424.8 L 2214.4 1481.0 L 2107.7 1481.0 L 2107.7 1547.0 L 2225.0 1547.0 L 2225.0 1603.1 L 2040.7 1603.1 L 2040.7 1315.0 Z" fill="none"/>
<rect x="913.0" y="1397.1" width="574.0" height="52.0" fill="none"/>
<circle cx="1258.0" cy="2040.8826549942796" r="137.75" fill="none"/>
<line x1="1171.0" y1="2258.3826549942796" x2="1388.5" y2="2548.3826549942796" stroke="#FFFFFF" stroke-width="166.75" stroke-linecap="round"/>
<line x1="1149.25" y1="2301.8826549942796" x2="895.5" y2="2577.3826549942796" stroke="#FFFFFF" stroke-width="116.0" stroke-linecap="round"/>
<line x1="1330.5" y1="2490.3826549942796" x2="1577.0" y2="2403.3826549942796" stroke="#FFFFFF" stroke-width="116.0" stroke-linecap="round"/>
<line x1="1308.75" y1="2649.8826549942796" x2="1055.0" y2="3012.3826549942796" stroke="#FFFFFF" stroke-width="123.25" stroke-linecap="round"/>
<line x1="1345.0" y1="2649.8826549942796" x2="1555.25" y2="2968.8826549942796" stroke="#FFFFFF" stroke-width="123.25" stroke-linecap="round"/>
<line x1="663.5" y1="3070.3826549942796" x2="1736.5" y2="2896.3826549942796" stroke="#FFFFFF" stroke-width="43.5" stroke-linecap="round"/>
<line x1="663.5" y1="3229.8826549942796" x2="1736.5" y2="3055.8826549942796" stroke="#FFFFFF" stroke-width="43.5" stroke-linecap="round"/>
<line x1="663.5" y1="3389.3826549942796" x2="1736.5" y2="3215.3826549942796" stroke="#FFFFFF" stroke-width="43.5" stroke-linecap="round"/>
<line x1="663.5" y1="3548.8826549942796" x2="1736.5" y2="3374.8826549942796" stroke="#FFFFFF" stroke-width="43.5" stroke-linecap="round"/>
<line x1="591.0" y1="2997.8826549942796" x2="1026.0" y2="3461.8826549942796" stroke="#FFFFFF" stroke-width="43.5" stroke-linecap="round"/>
<line x1="1374.0" y1="2910.8826549942796" x2="1838.0" y2="3331.3826549942796" stroke="#FFFFFF" stroke-width="43.5" stroke-linecap="round"/>
<rect x="935.0" y="2429.4" width="530.0" height="70.0" fill="none"/>
<rect x="1060.0" y="2759.4" width="330.0" height="70.0" fill="none"/>
</g>
<g id="STENCIL_BRIDGES_BACKGROUND_WHITE"/>
</svg>