<svg xmlns="http://www.w3.org/2000/svg" width="24in" height="36in" viewBox="0 0 2400 3600">
<title>06_EN_Agility_Zone - stencil-ready one-color SVG</title>
<g id="BLACK_CUT_OR_PAINT_AREA">
<path d="M 422.5 550.1 L 285.1 550.1 L 263.3 619.1 L 175.0 619.1 L 301.3 240.4 L 406.1 240.4 L 532.3 619.1 L 443.9 619.1 L 422.5 550.1 Z M 306.9 479.8 L 400.2 479.8 L 353.8 329.2 L 306.9 479.8 Z M 883.6 590.9 Q 850.7 608.7 Q 815.3 617.6 Q 779.9 626.4 Q 742.4 626.4 Q 657.2 626.4 Q 607.4 573.5 Q 557.8 520.6 Q 557.8 430.1 Q 557.8 338.6 Q 608.3 286.1 Q 658.9 233.6 Q 747.2 233.6 Q 781.2 233.6 Q 812.4 240.7 Q 843.5 247.8 Q 871.2 261.7 L 871.2 340.0 Q 842.5 322.1 Q 814.4 313.3 Q 786.2 304.3 Q 757.8 304.3 Q 705.3 304.3 Q 676.9 337.0 Q 648.5 369.5 Q 648.5 430.1 Q 648.5 490.2 Q 675.8 523.0 Q 703.3 555.7 Q 753.8 555.7 Q 767.5 555.7 Q 779.2 553.8 Q 791.1 551.9 Q 800.2 547.8 L 800.2 474.3 L 746.7 474.3 L 746.7 408.8 L 883.6 408.8 L 883.6 590.9 Z M 960.7 240.4 L 1048.8 240.4 L 1048.8 619.1 L 960.7 619.1 L 960.7 240.4 Z M 1134.4 240.4 L 1222.5 240.4 L 1222.5 545.3 L 1376.7 545.3 L 1376.7 619.1 L 1134.4 619.1 L 1134.4 240.4 Z M 1432.2 240.4 L 1520.2 240.4 L 1520.2 619.1 L 1432.2 619.1 L 1432.2 240.4 Z M 1565.3 240.4 L 1879.3 240.4 L 1879.3 314.2 L 1766.4 314.2 L 1766.4 619.1 L 1678.5 619.1 L 1678.5 314.2 L 1565.3 314.2 L 1565.3 240.4 Z M 1877.3 240.4 L 1973.4 240.4 L 2051.0 375.3 L 2128.7 240.4 L 2225.0 240.4 L 2095.1 459.5 L 2095.1 619.1 L 2007.2 619.1 L 2007.2 459.5 L 1877.3 240.4 Z" fill="none"/>
<rect x="913.0" y="402.5" width="574.0" height="55.0" fill="none"/>
<path d="M 647.2 836.0 L 876.5 836.0 L 876.5 883.3 L 730.1 1080.2 L 880.8 1080.2 L 880.8 1139.3 L 642.9 1139.3 L 642.9 1092.0 L 789.4 895.2 L 647.2 895.2 L 647.2 836.0 Z M 1056.5 887.2 Q 1024.4 887.2 Q 1006.6 913.6 Q 988.8 940.0 Q 988.8 988.0 Q 988.8 1035.7 Q 1006.6 1062.1 Q 1024.4 1088.5 Q 1056.5 1088.5 Q 1088.8 1088.5 Q 1106.5 1062.1 Q 1124.4 1035.7 Q 1124.4 988.0 Q 1124.4 940.0 Q 1106.5 913.6 Q 1088.8 887.2 Q 1056.5 887.2 Z M 1056.5 830.6 Q 1122.3 830.6 Q 1159.5 872.4 Q 1196.8 914.2 Q 1196.8 988.0 Q 1196.8 1061.5 Q 1159.5 1103.4 Q 1122.3 1145.2 Q 1056.5 1145.2 Q 990.9 1145.2 Q 953.5 1103.4 Q 916.2 1061.5 Q 916.2 988.0 Q 916.2 914.2 Q 953.5 872.4 Q 990.9 830.6 Q 1056.5 830.6 Z M 1249.9 836.0 L 1328.5 836.0 L 1427.8 1044.0 L 1427.8 836.0 L 1494.5 836.0 L 1494.5 1139.3 L 1415.8 1139.3 L 1316.7 931.3 L 1316.7 1139.3 L 1249.9 1139.3 L 1249.9 836.0 Z M 1563.1 836.0 L 1753.0 836.0 L 1753.0 895.2 L 1633.6 895.2 L 1633.6 951.6 L 1745.9 951.6 L 1745.9 1010.7 L 1633.6 1010.7 L 1633.6 1080.2 L 1757.1 1080.2 L 1757.1 1139.3 L 1563.1 1139.3 L 1563.1 836.0 Z" fill="none"/>
<rect x="1044.0" y="965.9" width="312.0" height="44.1" fill="none"/>
<circle cx="1258.0" cy="1871.5" r="137.75" fill="none"/>
<line x1="1171.0" y1="2089.0" x2="1388.5" y2="2379.0" stroke="#FFFFFF" stroke-width="166.75" stroke-linecap="round"/>
<line x1="1149.25" y1="2132.5" x2="895.5" y2="2408.0" stroke="#FFFFFF" stroke-width="116.0" stroke-linecap="round"/>
<line x1="1330.5" y1="2321.0" x2="1577.0" y2="2234.0" stroke="#FFFFFF" stroke-width="116.0" stroke-linecap="round"/>
<line x1="1308.75" y1="2480.5" x2="1055.0" y2="2843.0" stroke="#FFFFFF" stroke-width="123.25" stroke-linecap="round"/>
<line x1="1345.0" y1="2480.5" x2="1555.25" y2="2799.5" stroke="#FFFFFF" stroke-width="123.25" stroke-linecap="round"/>
<line x1="663.5" y1="2901.0" x2="1736.5" y2="2727.0" stroke="#FFFFFF" stroke-width="43.5" stroke-linecap="round"/>
<line x1="663.5" y1="3060.5" x2="1736.5" y2="2886.5" stroke="#FFFFFF" stroke-width="43.5" stroke-linecap="round"/>
<line x1="663.5" y1="3220.0" x2="1736.5" y2="3046.0" stroke="#FFFFFF" stroke-width="43.5" stroke-linecap="round"/>
<line x1="663.5" y1="3379.5" x2="1736.5" y2="3205.5" stroke="#FFFFFF" stroke-width="43.5" stroke-linecap="round"/>
<line x1="591.0" y1="2828.5" x2="1026.0" y2="3292.5" stroke="#FFFFFF" stroke-width="43.5" stroke-linecap="round"/>
<line x1="1374.0" y1="2741.5" x2="1838.0" y2="3162.0" stroke="#FFFFFF" stroke-width="43.5" stroke-linecap="round"/>
<rect x="935.0" y="2260.0" width="530.0" height="70.0" fill="none"/>
<rect x="1060.0" y="2590.0" width="330.0" height="70.0" fill="none"/>
</g>
<g id="STENCIL_BRIDGES_BACKGROUND_WHITE"/>
</svg>