<svg xmlns="http://www.w3.org/2000/svg" width="24in" height="36in" viewBox="0 0 2400 3600">
<title>09_EN_Hand_Skills_Zone - stencil-ready one-color SVG</title>
<g id="BLACK_CUT_OR_PAINT_AREA">
<path d="M 715.0 304.6 L 773.3 304.6 L 773.3 400.2 L 859.1 400.2 L 859.1 304.6 L 917.3 304.6 L 917.3 555.4 L 859.1 555.4 L 859.1 449.1 L 773.3 449.1 L 773.3 555.4 L 715.0 555.4 L 715.0 304.6 Z M 1111.1 509.7 L 1020.0 509.7 L 1005.6 555.4 L 947.1 555.4 L 1030.8 304.6 L 1100.2 304.6 L 1183.8 555.4 L 1125.2 555.4 L 1111.1 509.7 Z M 1034.5 463.2 L 1096.3 463.2 L 1065.5 363.4 L 1034.5 463.2 Z M 1213.5 304.6 L 1278.6 304.6 L 1360.7 476.6 L 1360.7 304.6 L 1415.8 304.6 L 1415.8 555.4 L 1350.7 555.4 L 1268.8 383.4 L 1268.8 555.4 L 1213.5 555.4 L 1213.5 304.6 Z M 1530.9 353.5 L 1530.9 506.5 L 1551.7 506.5 Q 1587.3 506.5 Q 1606.1 486.9 Q 1624.9 467.2 Q 1624.9 429.7 Q 1624.9 392.5 Q 1606.2 373.0 Q 1587.5 353.5 Q 1551.7 353.5 L 1530.9 353.5 Z M 1472.5 304.6 L 1534.0 304.6 Q 1585.4 304.6 Q 1610.5 312.8 Q 1635.7 320.9 Q 1653.6 340.4 Q 1669.6 357.4 Q 1677.3 379.6 Q 1685.0 401.7 Q 1685.0 429.7 Q 1685.0 458.2 Q 1677.3 480.4 Q 1669.6 502.7 Q 1653.6 519.6 Q 1635.4 539.1 Q 1610.1 547.3 Q 1584.8 555.4 Q 1534.0 555.4 L 1472.5 555.4 L 1472.5 304.6 Z" fill="none"/>
<rect x="1064.2" y="412.4" width="271.6" height="35.1" fill="none"/>
<path d="M 685.2 698.7 L 685.2 765.1 Q 662.0 753.5 Q 639.9 747.7 Q 617.8 741.8 Q 598.0 741.8 Q 572.0 741.8 Q 559.5 749.8 Q 547.0 757.7 Q 547.0 774.5 Q 547.0 787.1 Q 555.4 794.2 Q 563.8 801.2 Q 586.1 806.2 L 616.9 813.1 Q 664.2 823.7 Q 683.9 845.1 Q 703.6 866.5 Q 703.6 906.0 Q 703.6 957.8 Q 676.0 983.1 Q 648.4 1008.4 Q 591.5 1008.4 Q 564.6 1008.4 Q 537.6 1002.7 Q 510.7 997.1 Q 483.6 985.9 L 483.6 917.7 Q 510.7 933.6 Q 535.9 941.8 Q 561.1 949.8 Q 584.6 949.8 Q 608.3 949.8 Q 621.0 941.0 Q 633.7 932.2 Q 633.7 915.8 Q 633.7 901.1 Q 625.1 893.1 Q 616.5 885.1 Q 590.7 878.8 L 562.5 871.9 Q 520.3 861.8 Q 500.7 839.8 Q 481.1 817.7 Q 481.1 780.4 Q 481.1 733.6 Q 508.4 708.4 Q 535.7 683.2 Q 586.5 683.2 Q 609.8 683.2 Q 634.3 687.1 Q 658.9 691.0 Q 685.2 698.7 Z M 767.5 688.8 L 840.4 688.8 L 840.4 803.2 L 945.1 688.8 L 1029.7 688.8 L 893.6 837.3 L 1043.6 1002.3 L 952.4 1002.3 L 840.4 878.8 L 840.4 1002.3 L 767.5 1002.3 L 767.5 688.8 Z M 1067.3 688.8 L 1140.2 688.8 L 1140.2 1002.3 L 1067.3 1002.3 L 1067.3 688.8 Z M 1211.1 688.8 L 1284.0 688.8 L 1284.0 941.2 L 1411.7 941.2 L 1411.7 1002.3 L 1211.1 1002.3 L 1211.1 688.8 Z M 1457.6 688.8 L 1530.5 688.8 L 1530.5 941.2 L 1658.2 941.2 L 1658.2 1002.3 L 1457.6 1002.3 L 1457.6 688.8 Z M 1900.4 698.7 L 1900.4 765.1 Q 1877.3 753.5 Q 1855.1 747.7 Q 1833.0 741.8 Q 1813.3 741.8 Q 1787.3 741.8 Q 1774.8 749.8 Q 1762.3 757.7 Q 1762.3 774.5 Q 1762.3 787.1 Q 1770.7 794.2 Q 1779.1 801.2 Q 1801.3 806.2 L 1832.2 813.1 Q 1879.5 823.7 Q 1899.1 845.1 Q 1918.9 866.5 Q 1918.9 906.0 Q 1918.9 957.8 Q 1891.3 983.1 Q 1863.7 1008.4 Q 1806.8 1008.4 Q 1779.9 1008.4 Q 1752.9 1002.7 Q 1725.9 997.1 Q 1698.9 985.9 L 1698.9 917.7 Q 1725.9 933.6 Q 1751.1 941.8 Q 1776.3 949.8 Q 1799.8 949.8 Q 1823.6 949.8 Q 1836.2 941.0 Q 1848.9 932.2 Q 1848.9 915.8 Q 1848.9 901.1 Q 1840.3 893.1 Q 1831.7 885.1 Q 1805.9 878.8 L 1777.8 871.9 Q 1735.6 861.8 Q 1716.0 839.8 Q 1696.4 817.7 Q 1696.4 780.4 Q 1696.4 733.6 Q 1723.6 708.4 Q 1750.9 683.2 Q 1801.7 683.2 Q 1825.0 683.2 Q 1849.6 687.1 Q 1874.1 691.0 Q 1900.4 698.7 Z" fill="none"/>
<rect x="998.7" y="823.0" width="402.6" height="45.5" fill="none"/>
<path d="M 742.9 1210.5 L 932.5 1210.5 L 932.5 1249.6 L 811.4 1412.4 L 936.0 1412.4 L 936.0 1461.3 L 739.3 1461.3 L 739.3 1422.1 L 860.5 1259.4 L 742.9 1259.4 L 742.9 1210.5 Z M 1081.3 1252.8 Q 1054.8 1252.8 Q 1040.1 1274.6 Q 1025.4 1296.5 Q 1025.4 1336.1 Q 1025.4 1375.6 Q 1040.1 1397.5 Q 1054.8 1419.3 Q 1081.3 1419.3 Q 1108.0 1419.3 Q 1122.7 1397.5 Q 1137.4 1375.6 Q 1137.4 1336.1 Q 1137.4 1296.5 Q 1122.7 1274.6 Q 1108.0 1252.8 Q 1081.3 1252.8 Z M 1081.3 1206.0 Q 1135.7 1206.0 Q 1166.5 1240.6 Q 1197.4 1275.1 Q 1197.4 1336.1 Q 1197.4 1396.9 Q 1166.5 1431.5 Q 1135.7 1466.2 Q 1081.3 1466.2 Q 1027.1 1466.2 Q 996.2 1431.5 Q 965.3 1396.9 Q 965.3 1336.1 Q 965.3 1275.1 Q 996.2 1240.6 Q 1027.1 1206.0 Q 1081.3 1206.0 Z M 1241.2 1210.5 L 1306.3 1210.5 L 1388.4 1382.5 L 1388.4 1210.5 L 1443.5 1210.5 L 1443.5 1461.3 L 1378.4 1461.3 L 1296.5 1289.3 L 1296.5 1461.3 L 1241.2 1461.3 L 1241.2 1210.5 Z M 1500.2 1210.5 L 1657.3 1210.5 L 1657.3 1259.4 L 1558.6 1259.4 L 1558.6 1306.0 L 1651.4 1306.0 L 1651.4 1354.9 L 1558.6 1354.9 L 1558.6 1412.4 L 1660.7 1412.4 L 1660.7 1461.3 L 1500.2 1461.3 L 1500.2 1210.5 Z" fill="none"/>
<rect x="1071.0" y="1317.8" width="258.0" height="36.4" fill="none"/>
<circle cx="787.5" cy="1937.5" r="123.75" fill="none"/>
<circle cx="1612.5" cy="1937.5" r="123.75" fill="none"/>
<line x1="606.0" y1="2135.5" x2="985.5" y2="2399.5" stroke="#FFFFFF" stroke-width="156.75" stroke-linecap="round"/>
<line x1="985.5" y1="2399.5" x2="1307.25" y2="2366.5" stroke="#FFFFFF" stroke-width="156.75" stroke-linecap="round"/>
<line x1="1794.0" y1="2135.5" x2="1414.5" y2="2399.5" stroke="#FFFFFF" stroke-width="156.75" stroke-linecap="round"/>
<line x1="1414.5" y1="2399.5" x2="1092.75" y2="2366.5" stroke="#FFFFFF" stroke-width="156.75" stroke-linecap="round"/>
<line x1="1035.0" y1="2482.0" x2="746.25" y2="2993.5" stroke="#FFFFFF" stroke-width="148.5" stroke-linecap="round"/>
<line x1="1365.0" y1="2482.0" x2="1653.75" y2="2993.5" stroke="#FFFFFF" stroke-width="148.5" stroke-linecap="round"/>
<rect x="935.0" y="2260.0" width="530.0" height="70.0" fill="none"/>
<rect x="1060.0" y="2590.0" width="330.0" height="70.0" fill="none"/>
</g>
<g id="STENCIL_BRIDGES_BACKGROUND_WHITE"/>
</svg>