<svg xmlns="http://www.w3.org/2000/svg" width="24in" height="36in" viewBox="0 0 2400 3600">
<title>02_FR_Zone_habilete_des_pieds - stencil-ready one-color SVG</title>
<g id="BLACK_CUT_OR_PAINT_AREA">
<path d="M 742.9 304.4 L 932.5 304.4 L 932.5 343.5 L 811.4 506.4 L 936.0 506.4 L 936.0 555.2 L 739.3 555.2 L 739.3 516.1 L 860.5 353.3 L 742.9 353.3 L 742.9 304.4 Z M 1081.3 346.8 Q 1054.8 346.8 Q 1040.1 368.6 Q 1025.4 390.4 Q 1025.4 430.1 Q 1025.4 469.5 Q 1040.1 491.4 Q 1054.8 513.2 Q 1081.3 513.2 Q 1108.0 513.2 Q 1122.7 491.4 Q 1137.4 469.5 Q 1137.4 430.1 Q 1137.4 390.4 Q 1122.7 368.6 Q 1108.0 346.8 Q 1081.3 346.8 Z M 1081.3 299.9 Q 1135.7 299.9 Q 1166.5 334.5 Q 1197.4 369.1 Q 1197.4 430.1 Q 1197.4 490.9 Q 1166.5 525.5 Q 1135.7 560.1 Q 1081.3 560.1 Q 1027.1 560.1 Q 996.2 525.5 Q 965.3 490.9 Q 965.3 430.1 Q 965.3 369.1 Q 996.2 334.5 Q 1027.1 299.9 Q 1081.3 299.9 Z M 1241.2 304.4 L 1306.3 304.4 L 1388.4 476.4 L 1388.4 304.4 L 1443.5 304.4 L 1443.5 555.2 L 1378.4 555.2 L 1296.5 383.2 L 1296.5 555.2 L 1241.2 555.2 L 1241.2 304.4 Z M 1500.2 304.4 L 1657.3 304.4 L 1657.3 353.3 L 1558.6 353.3 L 1558.6 400.0 L 1651.4 400.0 L 1651.4 448.9 L 1558.6 448.9 L 1558.6 506.4 L 1660.7 506.4 L 1660.7 555.2 L 1500.2 555.2 L 1500.2 304.4 Z" fill="none"/>
<rect x="1071.0" y="411.8" width="258.0" height="36.4" fill="none"/>
<path d="M 181.5 740.6 L 254.4 740.6 L 254.4 860.1 L 361.6 860.1 L 361.6 740.6 L 434.3 740.6 L 434.3 1054.1 L 361.6 1054.1 L 361.6 921.2 L 254.4 921.2 L 254.4 1054.1 L 181.5 1054.1 L 181.5 740.6 Z M 676.5 997.0 L 562.7 997.0 L 544.7 1054.1 L 471.6 1054.1 L 576.2 740.6 L 662.9 740.6 L 767.5 1054.1 L 694.2 1054.1 L 676.5 997.0 Z M 580.8 938.8 L 658.1 938.8 L 619.6 814.1 L 580.8 938.8 Z M 917.6 862.0 Q 934.8 862.0 Q 943.7 853.6 Q 952.6 845.2 Q 952.6 828.8 Q 952.6 812.6 Q 943.7 804.2 Q 934.8 795.6 Q 917.6 795.6 L 877.5 795.6 L 877.5 862.0 L 917.6 862.0 Z M 920.1 999.1 Q 942.2 999.1 Q 953.2 988.8 Q 964.2 978.5 Q 964.2 957.8 Q 964.2 937.3 Q 953.2 927.2 Q 942.2 917.0 Q 920.1 917.0 L 877.5 917.0 L 877.5 999.1 L 920.1 999.1 Z M 987.7 886.3 Q 1011.2 893.9 Q 1024.0 914.3 Q 1036.8 934.7 Q 1036.8 964.2 Q 1036.8 1009.6 Q 1009.2 1031.9 Q 981.7 1054.1 Q 925.4 1054.1 L 804.6 1054.1 L 804.6 740.6 L 913.8 740.6 Q 972.6 740.6 Q 998.9 760.4 Q 1025.3 780.1 Q 1025.3 823.6 Q 1025.3 846.4 Q 1015.7 862.5 Q 1006.2 878.6 Q 987.7 886.3 Z M 1099.4 740.6 L 1172.3 740.6 L 1172.3 1054.1 L 1099.4 1054.1 L 1099.4 740.6 Z M 1243.2 740.6 L 1316.1 740.6 L 1316.1 993.0 L 1443.8 993.0 L 1443.8 1054.1 L 1243.2 1054.1 L 1243.2 740.6 Z M 1489.7 740.6 L 1686.0 740.6 L 1686.0 801.8 L 1562.6 801.8 L 1562.6 860.1 L 1678.7 860.1 L 1678.7 921.2 L 1562.6 921.2 L 1562.6 993.0 L 1690.3 993.0 L 1690.3 1054.1 L 1489.7 1054.1 L 1489.7 740.6 Z M 1720.5 740.6 L 1980.4 740.6 L 1980.4 801.8 L 1887.0 801.8 L 1887.0 1054.1 L 1814.1 1054.1 L 1814.1 801.8 L 1720.5 801.8 L 1720.5 740.6 Z M 2018.0 740.6 L 2214.3 740.6 L 2214.3 801.8 L 2090.9 801.8 L 2090.9 860.1 L 2207.0 860.1 L 2207.0 921.2 L 2090.9 921.2 L 2090.9 993.0 L 2218.5 993.0 L 2218.5 1054.1 L 2018.0 1054.1 L 2018.0 740.6 Z M 2122.7 656.3 L 2176.3 656.3 L 2122.3 711.7 L 2085.4 711.7 L 2122.7 656.3 Z" fill="none"/>
<rect x="914.8" y="827.4" width="570.4" height="55.7" fill="none"/>
<path d="M 242.1 1329.8 L 242.1 1505.9 L 266.1 1505.9 Q 307.1 1505.9 Q 328.7 1483.3 Q 350.4 1460.6 Q 350.4 1417.5 Q 350.4 1374.6 Q 328.8 1352.2 Q 307.3 1329.8 Q 266.1 1329.8 L 242.1 1329.8 Z M 175.0 1273.5 L 245.8 1273.5 Q 304.9 1273.5 Q 333.8 1282.9 Q 362.8 1292.2 Q 383.4 1314.7 Q 401.8 1334.2 Q 410.6 1359.8 Q 419.5 1385.3 Q 419.5 1417.5 Q 419.5 1450.2 Q 410.6 1475.8 Q 401.8 1501.4 Q 383.4 1520.9 Q 362.5 1543.4 Q 333.3 1552.8 Q 304.2 1562.1 Q 245.8 1562.1 L 175.0 1562.1 L 175.0 1273.5 Z M 470.8 1273.5 L 651.5 1273.5 L 651.5 1329.8 L 537.9 1329.8 L 537.9 1383.5 L 644.8 1383.5 L 644.8 1439.8 L 537.9 1439.8 L 537.9 1505.9 L 655.4 1505.9 L 655.4 1562.1 L 470.8 1562.1 L 470.8 1273.5 Z M 894.9 1282.6 L 894.9 1343.7 Q 873.7 1333.1 Q 853.2 1327.7 Q 832.9 1322.2 Q 814.7 1322.2 Q 790.8 1322.2 Q 779.3 1329.6 Q 767.8 1336.9 Q 767.8 1352.4 Q 767.8 1364.0 Q 775.5 1370.5 Q 783.2 1376.9 Q 803.7 1381.6 L 832.1 1387.9 Q 875.6 1397.6 Q 893.8 1417.4 Q 912.0 1437.0 Q 912.0 1473.4 Q 912.0 1521.1 Q 886.5 1544.4 Q 861.1 1567.8 Q 808.7 1567.8 Q 784.0 1567.8 Q 759.1 1562.5 Q 734.3 1557.3 Q 709.4 1547.0 L 709.4 1484.2 Q 734.3 1498.9 Q 757.5 1506.4 Q 780.7 1513.8 Q 802.3 1513.8 Q 824.2 1513.8 Q 835.9 1505.7 Q 847.6 1497.5 Q 847.6 1482.5 Q 847.6 1469.0 Q 839.6 1461.6 Q 831.7 1454.2 Q 808.0 1448.4 L 782.0 1442.1 Q 743.2 1432.8 Q 725.1 1412.5 Q 707.1 1392.2 Q 707.1 1357.8 Q 707.1 1314.7 Q 732.2 1291.5 Q 757.3 1268.3 Q 804.1 1268.3 Q 825.5 1268.3 Q 848.1 1271.9 Q 870.8 1275.5 Q 894.9 1282.6 Z M 1094.6 1273.5 L 1205.8 1273.5 Q 1255.5 1273.5 Q 1282.0 1298.0 Q 1308.4 1322.4 Q 1308.4 1367.6 Q 1308.4 1413.1 Q 1282.0 1437.5 Q 1255.5 1462.0 Q 1205.8 1462.0 L 1161.8 1462.0 L 1161.8 1562.1 L 1094.6 1562.1 L 1094.6 1273.5 Z M 1161.8 1327.4 L 1161.8 1408.0 L 1198.6 1408.0 Q 1218.2 1408.0 Q 1228.8 1397.5 Q 1239.5 1387.0 Q 1239.5 1367.6 Q 1239.5 1348.3 Q 1228.8 1337.9 Q 1218.2 1327.4 Q 1198.6 1327.4 L 1161.8 1327.4 Z M 1355.6 1273.5 L 1422.7 1273.5 L 1422.7 1562.1 L 1355.6 1562.1 L 1355.6 1273.5 Z M 1488.0 1273.5 L 1668.8 1273.5 L 1668.8 1329.8 L 1555.2 1329.8 L 1555.2 1383.5 L 1662.1 1383.5 L 1662.1 1439.8 L 1555.2 1439.8 L 1555.2 1505.9 L 1672.7 1505.9 L 1672.7 1562.1 L 1488.0 1562.1 L 1488.0 1273.5 Z M 1798.6 1329.8 L 1798.6 1505.9 L 1822.5 1505.9 Q 1863.5 1505.9 Q 1885.2 1483.3 Q 1906.8 1460.6 Q 1906.8 1417.5 Q 1906.8 1374.6 Q 1885.2 1352.2 Q 1863.7 1329.8 Q 1822.5 1329.8 L 1798.6 1329.8 Z M 1731.4 1273.5 L 1802.2 1273.5 Q 1861.4 1273.5 Q 1890.2 1282.9 Q 1919.2 1292.2 Q 1939.9 1314.7 Q 1958.2 1334.2 Q 1967.1 1359.8 Q 1976.0 1385.3 Q 1976.0 1417.5 Q 1976.0 1450.2 Q 1967.1 1475.8 Q 1958.2 1501.4 Q 1939.9 1520.9 Q 1918.9 1543.4 Q 1889.7 1552.8 Q 1860.6 1562.1 Q 1802.2 1562.1 L 1731.4 1562.1 L 1731.4 1273.5 Z M 2208.0 1282.6 L 2208.0 1343.7 Q 2186.7 1333.1 Q 2166.3 1327.7 Q 2145.9 1322.2 Q 2127.8 1322.2 Q 2103.8 1322.2 Q 2092.3 1329.6 Q 2080.8 1336.9 Q 2080.8 1352.4 Q 2080.8 1364.0 Q 2088.5 1370.5 Q 2096.3 1376.9 Q 2116.7 1381.6 L 2145.1 1387.9 Q 2188.7 1397.6 Q 2206.8 1417.4 Q 2225.0 1437.0 Q 2225.0 1473.4 Q 2225.0 1521.1 Q 2199.6 1544.4 Q 2174.1 1567.8 Q 2121.8 1567.8 Q 2097.0 1567.8 Q 2072.1 1562.5 Q 2047.3 1557.3 Q 2022.4 1547.0 L 2022.4 1484.2 Q 2047.3 1498.9 Q 2070.5 1506.4 Q 2093.7 1513.8 Q 2115.4 1513.8 Q 2137.2 1513.8 Q 2148.9 1505.7 Q 2160.6 1497.5 Q 2160.6 1482.5 Q 2160.6 1469.0 Q 2152.7 1461.6 Q 2144.8 1454.2 Q 2121.0 1448.4 L 2095.1 1442.1 Q 2056.2 1432.8 Q 2038.2 1412.5 Q 2020.1 1392.2 Q 2020.1 1357.8 Q 2020.1 1314.7 Q 2045.2 1291.5 Q 2070.3 1268.3 Q 2117.1 1268.3 Q 2138.6 1268.3 Q 2161.2 1271.9 Q 2183.8 1275.5 Q 2208.0 1282.6 Z" fill="none"/>
<rect x="913.0" y="1397.1" width="574.0" height="41.9" fill="none"/>
<circle cx="1258.0" cy="1964.0007583984498" r="137.75" fill="none"/>
<line x1="1171.0" y1="2181.5007583984498" x2="1388.5" y2="2471.5007583984498" stroke="#FFFFFF" stroke-width="166.75" stroke-linecap="round"/>
<line x1="1149.25" y1="2225.0007583984498" x2="895.5" y2="2500.5007583984498" stroke="#FFFFFF" stroke-width="116.0" stroke-linecap="round"/>
<line x1="1330.5" y1="2413.5007583984498" x2="1577.0" y2="2326.5007583984498" stroke="#FFFFFF" stroke-width="116.0" stroke-linecap="round"/>
<line x1="1308.75" y1="2573.0007583984498" x2="1055.0" y2="2935.5007583984498" stroke="#FFFFFF" stroke-width="123.25" stroke-linecap="round"/>
<line x1="1345.0" y1="2573.0007583984498" x2="1555.25" y2="2892.0007583984498" stroke="#FFFFFF" stroke-width="123.25" stroke-linecap="round"/>
<line x1="663.5" y1="2993.5007583984498" x2="1736.5" y2="2819.5007583984498" stroke="#FFFFFF" stroke-width="43.5" stroke-linecap="round"/>
<line x1="663.5" y1="3153.0007583984498" x2="1736.5" y2="2979.0007583984498" stroke="#FFFFFF" stroke-width="43.5" stroke-linecap="round"/>
<line x1="663.5" y1="3312.5007583984498" x2="1736.5" y2="3138.5007583984498" stroke="#FFFFFF" stroke-width="43.5" stroke-linecap="round"/>
<line x1="663.5" y1="3472.0007583984498" x2="1736.5" y2="3298.0007583984498" stroke="#FFFFFF" stroke-width="43.5" stroke-linecap="round"/>
<line x1="591.0" y1="2921.0007583984498" x2="1026.0" y2="3385.0007583984498" stroke="#FFFFFF" stroke-width="43.5" stroke-linecap="round"/>
<line x1="1374.0" y1="2834.0007583984498" x2="1838.0" y2="3254.5007583984498" stroke="#FFFFFF" stroke-width="43.5" stroke-linecap="round"/>
<rect x="935.0" y="2352.5" width="530.0" height="70.0" fill="none"/>
<rect x="1060.0" y="2682.5" width="330.0" height="70.0" fill="none"/>
</g>
<g id="STENCIL_BRIDGES_BACKGROUND_WHITE"/>
</svg>